<mxfile host="app.diagrams.net" agent="Mozilla/5.0 (Windows NT 10.0; Win64; x64) AppleWebKit/537.36 (KHTML, like Gecko) Chrome/135.0.0.0 Safari/537.36" version="26.2.14" pages="3">
  <diagram name="Стратегічний аналіз" id="CsAaapYC5KMkgkRhykqM">
    <mxGraphModel dx="4532" dy="1697" grid="1" gridSize="10" guides="1" tooltips="1" connect="1" arrows="1" fold="1" page="1" pageScale="1" pageWidth="4000" pageHeight="4000" math="0" shadow="0">
      <root>
        <mxCell id="0" />
        <mxCell id="1" parent="0" />
        <mxCell id="2TERXjn3XIddRPtHSyQH-3" value="&lt;font style=&quot;font-size: 16px;&quot;&gt;Ефективність запуску онлайн-магазину не відповідає очікуванням&lt;/font&gt;" style="rounded=1;whiteSpace=wrap;html=1;" parent="1" vertex="1">
          <mxGeometry x="1765" y="1880" width="310" height="160" as="geometry" />
        </mxCell>
        <mxCell id="2TERXjn3XIddRPtHSyQH-4" value="Відсутність чітких ролей та мотивації" style="rounded=1;whiteSpace=wrap;html=1;" parent="1" vertex="1">
          <mxGeometry x="1060" y="2470" width="190" height="30" as="geometry" />
        </mxCell>
        <mxCell id="2TERXjn3XIddRPtHSyQH-5" value="Низька залученність" style="rounded=1;whiteSpace=wrap;html=1;" parent="1" vertex="1">
          <mxGeometry x="830" y="2290" width="210" height="30" as="geometry" />
        </mxCell>
        <mxCell id="2TERXjn3XIddRPtHSyQH-30" style="rounded=0;orthogonalLoop=1;jettySize=auto;html=1;exitX=0.5;exitY=0;exitDx=0;exitDy=0;entryX=0.5;entryY=1;entryDx=0;entryDy=0;" parent="1" source="2TERXjn3XIddRPtHSyQH-7" target="2TERXjn3XIddRPtHSyQH-3" edge="1">
          <mxGeometry relative="1" as="geometry">
            <Array as="points">
              <mxPoint x="1155" y="2120" />
              <mxPoint x="1920" y="2120" />
            </Array>
          </mxGeometry>
        </mxCell>
        <mxCell id="2TERXjn3XIddRPtHSyQH-7" value="Високе навантаження&amp;nbsp;" style="rounded=1;whiteSpace=wrap;html=1;" parent="1" vertex="1">
          <mxGeometry x="1075" y="2290" width="160" height="30" as="geometry" />
        </mxCell>
        <mxCell id="2TERXjn3XIddRPtHSyQH-9" value="Високе навантаження" style="rounded=1;whiteSpace=wrap;html=1;" parent="1" vertex="1">
          <mxGeometry x="1280" y="2290" width="160" height="30" as="geometry" />
        </mxCell>
        <mxCell id="2TERXjn3XIddRPtHSyQH-22" value="Обмежений стартовий капітал" style="rounded=1;whiteSpace=wrap;html=1;" parent="1" vertex="1">
          <mxGeometry x="1600" y="2740" width="190" height="30" as="geometry" />
        </mxCell>
        <mxCell id="2TERXjn3XIddRPtHSyQH-23" value="Неможливо найняти фахівців" style="rounded=1;whiteSpace=wrap;html=1;" parent="1" vertex="1">
          <mxGeometry x="1270" y="2560" width="210" height="30" as="geometry" />
        </mxCell>
        <mxCell id="2TERXjn3XIddRPtHSyQH-24" value="Засновник виконує всі задачі" style="rounded=1;whiteSpace=wrap;html=1;" parent="1" vertex="1">
          <mxGeometry x="1515" y="2560" width="160" height="30" as="geometry" />
        </mxCell>
        <mxCell id="2TERXjn3XIddRPtHSyQH-25" value="Високе навантаження" style="rounded=1;whiteSpace=wrap;html=1;" parent="1" vertex="1">
          <mxGeometry x="1715" y="2560" width="160" height="30" as="geometry" />
        </mxCell>
        <mxCell id="2TERXjn3XIddRPtHSyQH-39" value="Команда / HR" style="ellipse;whiteSpace=wrap;html=1;aspect=fixed;" parent="1" vertex="1">
          <mxGeometry x="1060" y="2080" width="80" height="80" as="geometry" />
        </mxCell>
        <mxCell id="2TERXjn3XIddRPtHSyQH-41" value="Ресурси / Фінанси" style="ellipse;whiteSpace=wrap;html=1;aspect=fixed;" parent="1" vertex="1">
          <mxGeometry x="1630" y="2330" width="80" height="80" as="geometry" />
        </mxCell>
        <mxCell id="4FyZ5yrcWeWUMqT4MnUz-2" value="" style="endArrow=none;html=1;rounded=0;" edge="1" parent="1" source="2TERXjn3XIddRPtHSyQH-5">
          <mxGeometry width="50" height="50" relative="1" as="geometry">
            <mxPoint x="1610" y="2240" as="sourcePoint" />
            <mxPoint x="1160" y="2200" as="targetPoint" />
            <Array as="points">
              <mxPoint x="935" y="2200" />
              <mxPoint x="1160" y="2200" />
            </Array>
          </mxGeometry>
        </mxCell>
        <mxCell id="4FyZ5yrcWeWUMqT4MnUz-3" value="" style="endArrow=none;html=1;rounded=0;exitX=0.5;exitY=0;exitDx=0;exitDy=0;" edge="1" parent="1" source="2TERXjn3XIddRPtHSyQH-9">
          <mxGeometry width="50" height="50" relative="1" as="geometry">
            <mxPoint x="1360" y="2240" as="sourcePoint" />
            <mxPoint x="1160" y="2200" as="targetPoint" />
            <Array as="points">
              <mxPoint x="1360" y="2200" />
            </Array>
          </mxGeometry>
        </mxCell>
        <mxCell id="4FyZ5yrcWeWUMqT4MnUz-4" value="" style="endArrow=classic;html=1;rounded=0;" edge="1" parent="1" source="2TERXjn3XIddRPtHSyQH-22" target="2TERXjn3XIddRPtHSyQH-25">
          <mxGeometry width="50" height="50" relative="1" as="geometry">
            <mxPoint x="1095" y="2770" as="sourcePoint" />
            <mxPoint x="1145" y="2720" as="targetPoint" />
            <Array as="points">
              <mxPoint x="1695" y="2670" />
              <mxPoint x="1795" y="2670" />
            </Array>
          </mxGeometry>
        </mxCell>
        <mxCell id="4FyZ5yrcWeWUMqT4MnUz-6" value="" style="endArrow=classic;html=1;rounded=0;" edge="1" parent="1" source="2TERXjn3XIddRPtHSyQH-4" target="2TERXjn3XIddRPtHSyQH-5">
          <mxGeometry width="50" height="50" relative="1" as="geometry">
            <mxPoint x="1110" y="2400" as="sourcePoint" />
            <mxPoint x="1160" y="2350" as="targetPoint" />
            <Array as="points">
              <mxPoint x="1155" y="2400" />
              <mxPoint x="935" y="2400" />
            </Array>
          </mxGeometry>
        </mxCell>
        <mxCell id="4FyZ5yrcWeWUMqT4MnUz-7" value="" style="endArrow=classic;html=1;rounded=0;" edge="1" parent="1" source="2TERXjn3XIddRPtHSyQH-4" target="2TERXjn3XIddRPtHSyQH-9">
          <mxGeometry width="50" height="50" relative="1" as="geometry">
            <mxPoint x="970" y="2510" as="sourcePoint" />
            <mxPoint x="1020" y="2460" as="targetPoint" />
            <Array as="points">
              <mxPoint x="1155" y="2400" />
              <mxPoint x="1360" y="2400" />
            </Array>
          </mxGeometry>
        </mxCell>
        <mxCell id="4FyZ5yrcWeWUMqT4MnUz-8" value="" style="endArrow=classic;html=1;rounded=0;" edge="1" parent="1" source="2TERXjn3XIddRPtHSyQH-4" target="2TERXjn3XIddRPtHSyQH-7">
          <mxGeometry width="50" height="50" relative="1" as="geometry">
            <mxPoint x="920" y="2490" as="sourcePoint" />
            <mxPoint x="970" y="2440" as="targetPoint" />
          </mxGeometry>
        </mxCell>
        <mxCell id="4FyZ5yrcWeWUMqT4MnUz-9" value="" style="endArrow=classic;html=1;rounded=0;" edge="1" parent="1" source="2TERXjn3XIddRPtHSyQH-22" target="2TERXjn3XIddRPtHSyQH-24">
          <mxGeometry width="50" height="50" relative="1" as="geometry">
            <mxPoint x="1485" y="2780" as="sourcePoint" />
            <mxPoint x="1535" y="2730" as="targetPoint" />
            <Array as="points">
              <mxPoint x="1695" y="2670" />
              <mxPoint x="1595" y="2670" />
            </Array>
          </mxGeometry>
        </mxCell>
        <mxCell id="4FyZ5yrcWeWUMqT4MnUz-10" value="" style="endArrow=classic;html=1;rounded=0;" edge="1" parent="1" source="2TERXjn3XIddRPtHSyQH-22" target="2TERXjn3XIddRPtHSyQH-23">
          <mxGeometry width="50" height="50" relative="1" as="geometry">
            <mxPoint x="1275" y="2710" as="sourcePoint" />
            <mxPoint x="1370" y="2590" as="targetPoint" />
            <Array as="points">
              <mxPoint x="1695" y="2670" />
              <mxPoint x="1375" y="2670" />
            </Array>
          </mxGeometry>
        </mxCell>
        <mxCell id="4FyZ5yrcWeWUMqT4MnUz-12" value="Ризик вигоряння" style="rounded=1;whiteSpace=wrap;html=1;" vertex="1" parent="1">
          <mxGeometry x="1915" y="2560" width="160" height="30" as="geometry" />
        </mxCell>
        <mxCell id="4FyZ5yrcWeWUMqT4MnUz-13" value="" style="endArrow=classic;html=1;rounded=0;" edge="1" parent="1" source="2TERXjn3XIddRPtHSyQH-22" target="4FyZ5yrcWeWUMqT4MnUz-12">
          <mxGeometry width="50" height="50" relative="1" as="geometry">
            <mxPoint x="1985" y="2750" as="sourcePoint" />
            <mxPoint x="2035" y="2700" as="targetPoint" />
            <Array as="points">
              <mxPoint x="1695" y="2670" />
              <mxPoint x="1995" y="2670" />
            </Array>
          </mxGeometry>
        </mxCell>
        <mxCell id="4FyZ5yrcWeWUMqT4MnUz-14" value="" style="endArrow=classic;html=1;rounded=0;" edge="1" parent="1" source="2TERXjn3XIddRPtHSyQH-24" target="2TERXjn3XIddRPtHSyQH-3">
          <mxGeometry width="50" height="50" relative="1" as="geometry">
            <mxPoint x="1660" y="2470" as="sourcePoint" />
            <mxPoint x="1710" y="2420" as="targetPoint" />
            <Array as="points">
              <mxPoint x="1600" y="2120" />
              <mxPoint x="1920" y="2120" />
            </Array>
          </mxGeometry>
        </mxCell>
        <mxCell id="4FyZ5yrcWeWUMqT4MnUz-15" value="" style="endArrow=none;html=1;rounded=0;" edge="1" parent="1" target="2TERXjn3XIddRPtHSyQH-23">
          <mxGeometry width="50" height="50" relative="1" as="geometry">
            <mxPoint x="1600" y="2480" as="sourcePoint" />
            <mxPoint x="1190" y="2720" as="targetPoint" />
            <Array as="points">
              <mxPoint x="1375" y="2480" />
            </Array>
          </mxGeometry>
        </mxCell>
        <mxCell id="4FyZ5yrcWeWUMqT4MnUz-16" value="" style="endArrow=none;html=1;rounded=0;" edge="1" parent="1" source="2TERXjn3XIddRPtHSyQH-25">
          <mxGeometry width="50" height="50" relative="1" as="geometry">
            <mxPoint x="2080" y="2480" as="sourcePoint" />
            <mxPoint x="1600" y="2480" as="targetPoint" />
            <Array as="points">
              <mxPoint x="1795" y="2480" />
            </Array>
          </mxGeometry>
        </mxCell>
        <mxCell id="4FyZ5yrcWeWUMqT4MnUz-17" value="" style="endArrow=none;html=1;rounded=0;" edge="1" parent="1" source="4FyZ5yrcWeWUMqT4MnUz-12">
          <mxGeometry width="50" height="50" relative="1" as="geometry">
            <mxPoint x="1920" y="2370" as="sourcePoint" />
            <mxPoint x="1600" y="2480" as="targetPoint" />
            <Array as="points">
              <mxPoint x="1995" y="2480" />
            </Array>
          </mxGeometry>
        </mxCell>
        <mxCell id="4FyZ5yrcWeWUMqT4MnUz-18" value="Відсутність фінансової подушки" style="rounded=1;whiteSpace=wrap;html=1;" vertex="1" parent="1">
          <mxGeometry x="2285" y="2740" width="190" height="30" as="geometry" />
        </mxCell>
        <mxCell id="4FyZ5yrcWeWUMqT4MnUz-20" value="Будь-яка помилка = критичні наслідки" style="rounded=1;whiteSpace=wrap;html=1;" vertex="1" parent="1">
          <mxGeometry x="2200" y="2560" width="160" height="30" as="geometry" />
        </mxCell>
        <mxCell id="4FyZ5yrcWeWUMqT4MnUz-21" value="Постійний стрес і обмеження у рішеннях" style="rounded=1;whiteSpace=wrap;html=1;" vertex="1" parent="1">
          <mxGeometry x="2400" y="2560" width="160" height="30" as="geometry" />
        </mxCell>
        <mxCell id="4FyZ5yrcWeWUMqT4MnUz-22" value="" style="endArrow=classic;html=1;rounded=0;" edge="1" parent="1" source="4FyZ5yrcWeWUMqT4MnUz-18" target="4FyZ5yrcWeWUMqT4MnUz-21">
          <mxGeometry width="50" height="50" relative="1" as="geometry">
            <mxPoint x="1780" y="2770" as="sourcePoint" />
            <mxPoint x="1830" y="2720" as="targetPoint" />
            <Array as="points">
              <mxPoint x="2380" y="2670" />
              <mxPoint x="2480" y="2670" />
            </Array>
          </mxGeometry>
        </mxCell>
        <mxCell id="4FyZ5yrcWeWUMqT4MnUz-23" value="" style="endArrow=classic;html=1;rounded=0;" edge="1" parent="1" source="4FyZ5yrcWeWUMqT4MnUz-18" target="4FyZ5yrcWeWUMqT4MnUz-20">
          <mxGeometry width="50" height="50" relative="1" as="geometry">
            <mxPoint x="2170" y="2780" as="sourcePoint" />
            <mxPoint x="2220" y="2730" as="targetPoint" />
            <Array as="points">
              <mxPoint x="2380" y="2670" />
              <mxPoint x="2280" y="2670" />
            </Array>
          </mxGeometry>
        </mxCell>
        <mxCell id="4FyZ5yrcWeWUMqT4MnUz-27" value="" style="endArrow=classic;html=1;rounded=0;" edge="1" parent="1" source="4FyZ5yrcWeWUMqT4MnUz-20" target="2TERXjn3XIddRPtHSyQH-3">
          <mxGeometry width="50" height="50" relative="1" as="geometry">
            <mxPoint x="2260" y="2380" as="sourcePoint" />
            <mxPoint x="2310" y="2330" as="targetPoint" />
            <Array as="points">
              <mxPoint x="2280" y="2120" />
              <mxPoint x="1920" y="2120" />
            </Array>
          </mxGeometry>
        </mxCell>
        <mxCell id="4FyZ5yrcWeWUMqT4MnUz-28" value="" style="endArrow=none;html=1;rounded=0;" edge="1" parent="1" source="4FyZ5yrcWeWUMqT4MnUz-21">
          <mxGeometry width="50" height="50" relative="1" as="geometry">
            <mxPoint x="2670" y="2440" as="sourcePoint" />
            <mxPoint x="2280" y="2480" as="targetPoint" />
            <Array as="points">
              <mxPoint x="2480" y="2480" />
            </Array>
          </mxGeometry>
        </mxCell>
        <mxCell id="4FyZ5yrcWeWUMqT4MnUz-29" value="Ресурси / Фінанси" style="ellipse;whiteSpace=wrap;html=1;aspect=fixed;" vertex="1" parent="1">
          <mxGeometry x="2310" y="2380" width="80" height="80" as="geometry" />
        </mxCell>
        <mxCell id="4FyZ5yrcWeWUMqT4MnUz-30" value="Насичений ринок / велика конкуренція" style="rounded=1;whiteSpace=wrap;html=1;" vertex="1" parent="1">
          <mxGeometry x="2835" y="2470" width="190" height="30" as="geometry" />
        </mxCell>
        <mxCell id="4FyZ5yrcWeWUMqT4MnUz-31" value="Складно знайти унікальну нішу" style="rounded=1;whiteSpace=wrap;html=1;" vertex="1" parent="1">
          <mxGeometry x="2760" y="2290" width="160" height="30" as="geometry" />
        </mxCell>
        <mxCell id="4FyZ5yrcWeWUMqT4MnUz-32" value="Висока вартість залучення клієнта (CAC)" style="rounded=1;whiteSpace=wrap;html=1;" vertex="1" parent="1">
          <mxGeometry x="2960" y="2290" width="160" height="30" as="geometry" />
        </mxCell>
        <mxCell id="4FyZ5yrcWeWUMqT4MnUz-33" value="" style="endArrow=classic;html=1;rounded=0;" edge="1" parent="1" source="4FyZ5yrcWeWUMqT4MnUz-30" target="4FyZ5yrcWeWUMqT4MnUz-32">
          <mxGeometry width="50" height="50" relative="1" as="geometry">
            <mxPoint x="2330" y="2500" as="sourcePoint" />
            <mxPoint x="2380" y="2450" as="targetPoint" />
            <Array as="points">
              <mxPoint x="2930" y="2400" />
              <mxPoint x="3040" y="2400" />
            </Array>
          </mxGeometry>
        </mxCell>
        <mxCell id="4FyZ5yrcWeWUMqT4MnUz-34" value="" style="endArrow=classic;html=1;rounded=0;" edge="1" parent="1" source="4FyZ5yrcWeWUMqT4MnUz-30" target="4FyZ5yrcWeWUMqT4MnUz-31">
          <mxGeometry width="50" height="50" relative="1" as="geometry">
            <mxPoint x="2720" y="2510" as="sourcePoint" />
            <mxPoint x="2770" y="2460" as="targetPoint" />
            <Array as="points">
              <mxPoint x="2930" y="2400" />
              <mxPoint x="2840" y="2400" />
            </Array>
          </mxGeometry>
        </mxCell>
        <mxCell id="4FyZ5yrcWeWUMqT4MnUz-36" value="Ресурси / Фінанси" style="ellipse;whiteSpace=wrap;html=1;aspect=fixed;" vertex="1" parent="1">
          <mxGeometry x="2860" y="2110" width="80" height="80" as="geometry" />
        </mxCell>
        <mxCell id="4FyZ5yrcWeWUMqT4MnUz-37" value="Новачки програють лідерам (ціна, довіра, асортимент)" style="rounded=1;whiteSpace=wrap;html=1;" vertex="1" parent="1">
          <mxGeometry x="3160" y="2290" width="160" height="30" as="geometry" />
        </mxCell>
        <mxCell id="4FyZ5yrcWeWUMqT4MnUz-38" value="" style="endArrow=classic;html=1;rounded=0;" edge="1" parent="1" source="4FyZ5yrcWeWUMqT4MnUz-30" target="4FyZ5yrcWeWUMqT4MnUz-37">
          <mxGeometry width="50" height="50" relative="1" as="geometry">
            <mxPoint x="3060" y="2470" as="sourcePoint" />
            <mxPoint x="3110" y="2420" as="targetPoint" />
            <Array as="points">
              <mxPoint x="2930" y="2400" />
              <mxPoint x="3240" y="2400" />
            </Array>
          </mxGeometry>
        </mxCell>
        <mxCell id="4FyZ5yrcWeWUMqT4MnUz-39" value="Сильні вимоги до швидкості доставки, сервісу, інтерфейсу" style="rounded=1;whiteSpace=wrap;html=1;" vertex="1" parent="1">
          <mxGeometry x="2520" y="2290" width="200" height="30" as="geometry" />
        </mxCell>
        <mxCell id="4FyZ5yrcWeWUMqT4MnUz-40" value="" style="endArrow=classic;html=1;rounded=0;" edge="1" parent="1" source="4FyZ5yrcWeWUMqT4MnUz-30" target="4FyZ5yrcWeWUMqT4MnUz-39">
          <mxGeometry width="50" height="50" relative="1" as="geometry">
            <mxPoint x="2610" y="2550" as="sourcePoint" />
            <mxPoint x="2660" y="2500" as="targetPoint" />
            <Array as="points">
              <mxPoint x="2930" y="2400" />
              <mxPoint x="2620" y="2400" />
            </Array>
          </mxGeometry>
        </mxCell>
        <mxCell id="4FyZ5yrcWeWUMqT4MnUz-41" value="" style="endArrow=classic;html=1;rounded=0;" edge="1" parent="1" source="4FyZ5yrcWeWUMqT4MnUz-31" target="2TERXjn3XIddRPtHSyQH-3">
          <mxGeometry width="50" height="50" relative="1" as="geometry">
            <mxPoint x="2710" y="2190" as="sourcePoint" />
            <mxPoint x="2760" y="2140" as="targetPoint" />
            <Array as="points">
              <mxPoint x="2840" y="2120" />
              <mxPoint x="1920" y="2120" />
            </Array>
          </mxGeometry>
        </mxCell>
        <mxCell id="4FyZ5yrcWeWUMqT4MnUz-42" value="" style="endArrow=none;html=1;rounded=0;" edge="1" parent="1" source="4FyZ5yrcWeWUMqT4MnUz-39">
          <mxGeometry width="50" height="50" relative="1" as="geometry">
            <mxPoint x="2690" y="2260" as="sourcePoint" />
            <mxPoint x="2840" y="2200" as="targetPoint" />
            <Array as="points">
              <mxPoint x="2620" y="2200" />
            </Array>
          </mxGeometry>
        </mxCell>
        <mxCell id="4FyZ5yrcWeWUMqT4MnUz-43" value="" style="endArrow=none;html=1;rounded=0;" edge="1" parent="1" source="4FyZ5yrcWeWUMqT4MnUz-32">
          <mxGeometry width="50" height="50" relative="1" as="geometry">
            <mxPoint x="3010" y="2170" as="sourcePoint" />
            <mxPoint x="2840" y="2200" as="targetPoint" />
            <Array as="points">
              <mxPoint x="3040" y="2200" />
            </Array>
          </mxGeometry>
        </mxCell>
        <mxCell id="4FyZ5yrcWeWUMqT4MnUz-44" value="" style="endArrow=none;html=1;rounded=0;" edge="1" parent="1" source="4FyZ5yrcWeWUMqT4MnUz-37">
          <mxGeometry width="50" height="50" relative="1" as="geometry">
            <mxPoint x="3110" y="2160" as="sourcePoint" />
            <mxPoint x="2840" y="2200" as="targetPoint" />
            <Array as="points">
              <mxPoint x="3240" y="2200" />
            </Array>
          </mxGeometry>
        </mxCell>
        <mxCell id="4FyZ5yrcWeWUMqT4MnUz-46" value="Затримка записку проєкту" style="rounded=1;whiteSpace=wrap;html=1;" vertex="1" parent="1">
          <mxGeometry x="1070" y="1770" width="160" height="30" as="geometry" />
        </mxCell>
        <mxCell id="4FyZ5yrcWeWUMqT4MnUz-47" value="Низька якість обслуговування" style="rounded=1;whiteSpace=wrap;html=1;" vertex="1" parent="1">
          <mxGeometry x="1650" y="1770" width="160" height="30" as="geometry" />
        </mxCell>
        <mxCell id="4FyZ5yrcWeWUMqT4MnUz-51" value="Відсутній робочий MVP" style="rounded=1;whiteSpace=wrap;html=1;" vertex="1" parent="1">
          <mxGeometry x="870" y="1690" width="160" height="30" as="geometry" />
        </mxCell>
        <mxCell id="4FyZ5yrcWeWUMqT4MnUz-52" value="Засновник перевантажений" style="rounded=1;whiteSpace=wrap;html=1;" vertex="1" parent="1">
          <mxGeometry x="1070" y="1690" width="160" height="30" as="geometry" />
        </mxCell>
        <mxCell id="4FyZ5yrcWeWUMqT4MnUz-53" value="Вигорання" style="rounded=1;whiteSpace=wrap;html=1;" vertex="1" parent="1">
          <mxGeometry x="1070" y="1620" width="160" height="30" as="geometry" />
        </mxCell>
        <mxCell id="4FyZ5yrcWeWUMqT4MnUz-54" value="Втрата мотивації" style="rounded=1;whiteSpace=wrap;html=1;" vertex="1" parent="1">
          <mxGeometry x="950" y="1540" width="160" height="30" as="geometry" />
        </mxCell>
        <mxCell id="4FyZ5yrcWeWUMqT4MnUz-55" value="Зниження якості управління" style="rounded=1;whiteSpace=wrap;html=1;" vertex="1" parent="1">
          <mxGeometry x="1190" y="1540" width="160" height="30" as="geometry" />
        </mxCell>
        <mxCell id="4FyZ5yrcWeWUMqT4MnUz-56" value="Проєкт запускається із запізненням або не запускається взагалі" style="rounded=1;whiteSpace=wrap;html=1;" vertex="1" parent="1">
          <mxGeometry x="1270" y="1690" width="230" height="30" as="geometry" />
        </mxCell>
        <mxCell id="4FyZ5yrcWeWUMqT4MnUz-57" value="" style="endArrow=classic;html=1;rounded=0;" edge="1" parent="1" source="4FyZ5yrcWeWUMqT4MnUz-46" target="4FyZ5yrcWeWUMqT4MnUz-52">
          <mxGeometry width="50" height="50" relative="1" as="geometry">
            <mxPoint x="1000" y="1900" as="sourcePoint" />
            <mxPoint x="1050" y="1850" as="targetPoint" />
          </mxGeometry>
        </mxCell>
        <mxCell id="4FyZ5yrcWeWUMqT4MnUz-58" value="" style="endArrow=classic;html=1;rounded=0;" edge="1" parent="1" source="4FyZ5yrcWeWUMqT4MnUz-46" target="4FyZ5yrcWeWUMqT4MnUz-51">
          <mxGeometry width="50" height="50" relative="1" as="geometry">
            <mxPoint x="870" y="1850" as="sourcePoint" />
            <mxPoint x="920" y="1800" as="targetPoint" />
            <Array as="points">
              <mxPoint x="1150" y="1750" />
              <mxPoint x="950" y="1750" />
            </Array>
          </mxGeometry>
        </mxCell>
        <mxCell id="4FyZ5yrcWeWUMqT4MnUz-59" value="" style="endArrow=classic;html=1;rounded=0;" edge="1" parent="1" source="4FyZ5yrcWeWUMqT4MnUz-46" target="4FyZ5yrcWeWUMqT4MnUz-56">
          <mxGeometry width="50" height="50" relative="1" as="geometry">
            <mxPoint x="1190" y="1930" as="sourcePoint" />
            <mxPoint x="1240" y="1880" as="targetPoint" />
            <Array as="points">
              <mxPoint x="1150" y="1750" />
              <mxPoint x="1385" y="1750" />
            </Array>
          </mxGeometry>
        </mxCell>
        <mxCell id="4FyZ5yrcWeWUMqT4MnUz-60" value="" style="endArrow=classic;html=1;rounded=0;" edge="1" parent="1" source="4FyZ5yrcWeWUMqT4MnUz-52" target="4FyZ5yrcWeWUMqT4MnUz-53">
          <mxGeometry width="50" height="50" relative="1" as="geometry">
            <mxPoint x="860" y="1670" as="sourcePoint" />
            <mxPoint x="910" y="1620" as="targetPoint" />
          </mxGeometry>
        </mxCell>
        <mxCell id="4FyZ5yrcWeWUMqT4MnUz-61" value="" style="endArrow=classic;html=1;rounded=0;" edge="1" parent="1" source="4FyZ5yrcWeWUMqT4MnUz-53" target="4FyZ5yrcWeWUMqT4MnUz-54">
          <mxGeometry width="50" height="50" relative="1" as="geometry">
            <mxPoint x="950" y="1640" as="sourcePoint" />
            <mxPoint x="1000" y="1590" as="targetPoint" />
            <Array as="points">
              <mxPoint x="1150" y="1590" />
              <mxPoint x="1030" y="1590" />
            </Array>
          </mxGeometry>
        </mxCell>
        <mxCell id="4FyZ5yrcWeWUMqT4MnUz-62" value="" style="endArrow=classic;html=1;rounded=0;" edge="1" parent="1" source="4FyZ5yrcWeWUMqT4MnUz-53" target="4FyZ5yrcWeWUMqT4MnUz-55">
          <mxGeometry width="50" height="50" relative="1" as="geometry">
            <mxPoint x="870" y="1630" as="sourcePoint" />
            <mxPoint x="920" y="1580" as="targetPoint" />
            <Array as="points">
              <mxPoint x="1150" y="1590" />
              <mxPoint x="1270" y="1590" />
            </Array>
          </mxGeometry>
        </mxCell>
        <mxCell id="4FyZ5yrcWeWUMqT4MnUz-63" value="Повільна реакція на замовлення" style="rounded=1;whiteSpace=wrap;html=1;" vertex="1" parent="1">
          <mxGeometry x="1535" y="1690" width="160" height="30" as="geometry" />
        </mxCell>
        <mxCell id="4FyZ5yrcWeWUMqT4MnUz-64" value="Помилки в доставці / оплаті" style="rounded=1;whiteSpace=wrap;html=1;" vertex="1" parent="1">
          <mxGeometry x="1765" y="1690" width="160" height="30" as="geometry" />
        </mxCell>
        <mxCell id="4FyZ5yrcWeWUMqT4MnUz-65" value="Перші клієнти незадоволені" style="rounded=1;whiteSpace=wrap;html=1;" vertex="1" parent="1">
          <mxGeometry x="1765" y="1620" width="160" height="30" as="geometry" />
        </mxCell>
        <mxCell id="4FyZ5yrcWeWUMqT4MnUz-66" value="Негативні відгуки" style="rounded=1;whiteSpace=wrap;html=1;" vertex="1" parent="1">
          <mxGeometry x="1765" y="1550" width="160" height="30" as="geometry" />
        </mxCell>
        <mxCell id="4FyZ5yrcWeWUMqT4MnUz-67" value="Репутаційні втрати" style="rounded=1;whiteSpace=wrap;html=1;" vertex="1" parent="1">
          <mxGeometry x="1765" y="1480" width="160" height="30" as="geometry" />
        </mxCell>
        <mxCell id="4FyZ5yrcWeWUMqT4MnUz-68" value="Складність залучення нових клієнтів" style="rounded=1;whiteSpace=wrap;html=1;" vertex="1" parent="1">
          <mxGeometry x="1650" y="1410" width="160" height="30" as="geometry" />
        </mxCell>
        <mxCell id="4FyZ5yrcWeWUMqT4MnUz-69" value="Немає повторних покупок" style="rounded=1;whiteSpace=wrap;html=1;" vertex="1" parent="1">
          <mxGeometry x="1885" y="1410" width="160" height="30" as="geometry" />
        </mxCell>
        <mxCell id="4FyZ5yrcWeWUMqT4MnUz-70" value="" style="endArrow=classic;html=1;rounded=0;" edge="1" parent="1" source="4FyZ5yrcWeWUMqT4MnUz-47" target="4FyZ5yrcWeWUMqT4MnUz-63">
          <mxGeometry width="50" height="50" relative="1" as="geometry">
            <mxPoint x="1685" y="1940" as="sourcePoint" />
            <mxPoint x="1735" y="1890" as="targetPoint" />
            <Array as="points">
              <mxPoint x="1730" y="1740" />
              <mxPoint x="1615" y="1740" />
            </Array>
          </mxGeometry>
        </mxCell>
        <mxCell id="4FyZ5yrcWeWUMqT4MnUz-71" value="" style="endArrow=classic;html=1;rounded=0;" edge="1" parent="1" source="4FyZ5yrcWeWUMqT4MnUz-47" target="4FyZ5yrcWeWUMqT4MnUz-64">
          <mxGeometry width="50" height="50" relative="1" as="geometry">
            <mxPoint x="1845" y="1800" as="sourcePoint" />
            <mxPoint x="1895" y="1750" as="targetPoint" />
            <Array as="points">
              <mxPoint x="1730" y="1740" />
              <mxPoint x="1845" y="1740" />
            </Array>
          </mxGeometry>
        </mxCell>
        <mxCell id="4FyZ5yrcWeWUMqT4MnUz-72" value="" style="endArrow=classic;html=1;rounded=0;" edge="1" parent="1" source="4FyZ5yrcWeWUMqT4MnUz-64" target="4FyZ5yrcWeWUMqT4MnUz-65">
          <mxGeometry width="50" height="50" relative="1" as="geometry">
            <mxPoint x="1695" y="1700" as="sourcePoint" />
            <mxPoint x="1745" y="1650" as="targetPoint" />
          </mxGeometry>
        </mxCell>
        <mxCell id="4FyZ5yrcWeWUMqT4MnUz-73" value="" style="endArrow=classic;html=1;rounded=0;" edge="1" parent="1" source="4FyZ5yrcWeWUMqT4MnUz-65" target="4FyZ5yrcWeWUMqT4MnUz-66">
          <mxGeometry width="50" height="50" relative="1" as="geometry">
            <mxPoint x="1685" y="1620" as="sourcePoint" />
            <mxPoint x="1735" y="1570" as="targetPoint" />
          </mxGeometry>
        </mxCell>
        <mxCell id="4FyZ5yrcWeWUMqT4MnUz-74" value="" style="endArrow=classic;html=1;rounded=0;" edge="1" parent="1" source="4FyZ5yrcWeWUMqT4MnUz-66" target="4FyZ5yrcWeWUMqT4MnUz-67">
          <mxGeometry width="50" height="50" relative="1" as="geometry">
            <mxPoint x="1575" y="1580" as="sourcePoint" />
            <mxPoint x="1625" y="1530" as="targetPoint" />
          </mxGeometry>
        </mxCell>
        <mxCell id="4FyZ5yrcWeWUMqT4MnUz-75" value="" style="endArrow=classic;html=1;rounded=0;" edge="1" parent="1" source="4FyZ5yrcWeWUMqT4MnUz-67" target="4FyZ5yrcWeWUMqT4MnUz-68">
          <mxGeometry width="50" height="50" relative="1" as="geometry">
            <mxPoint x="1545" y="1530" as="sourcePoint" />
            <mxPoint x="1595" y="1480" as="targetPoint" />
            <Array as="points">
              <mxPoint x="1845" y="1460" />
              <mxPoint x="1730" y="1460" />
            </Array>
          </mxGeometry>
        </mxCell>
        <mxCell id="4FyZ5yrcWeWUMqT4MnUz-76" value="" style="endArrow=classic;html=1;rounded=0;" edge="1" parent="1" source="4FyZ5yrcWeWUMqT4MnUz-67" target="4FyZ5yrcWeWUMqT4MnUz-69">
          <mxGeometry width="50" height="50" relative="1" as="geometry">
            <mxPoint x="1525" y="1560" as="sourcePoint" />
            <mxPoint x="1575" y="1510" as="targetPoint" />
            <Array as="points">
              <mxPoint x="1845" y="1460" />
              <mxPoint x="1965" y="1460" />
            </Array>
          </mxGeometry>
        </mxCell>
        <mxCell id="4FyZ5yrcWeWUMqT4MnUz-78" value="Відсутність продажів" style="rounded=1;whiteSpace=wrap;html=1;" vertex="1" parent="1">
          <mxGeometry x="2220" y="1770" width="160" height="30" as="geometry" />
        </mxCell>
        <mxCell id="4FyZ5yrcWeWUMqT4MnUz-79" value="Рекламу не запущено / вона неефективна" style="rounded=1;whiteSpace=wrap;html=1;" vertex="1" parent="1">
          <mxGeometry x="2100" y="1690" width="160" height="30" as="geometry" />
        </mxCell>
        <mxCell id="4FyZ5yrcWeWUMqT4MnUz-80" value="Сайт не викликає довіри" style="rounded=1;whiteSpace=wrap;html=1;" vertex="1" parent="1">
          <mxGeometry x="2340" y="1690" width="160" height="30" as="geometry" />
        </mxCell>
        <mxCell id="4FyZ5yrcWeWUMqT4MnUz-81" value="Висока вартість залучення клієнта (CAC)" style="rounded=1;whiteSpace=wrap;html=1;" vertex="1" parent="1">
          <mxGeometry x="2340" y="1620" width="160" height="30" as="geometry" />
        </mxCell>
        <mxCell id="4FyZ5yrcWeWUMqT4MnUz-82" value="Бізнес не виходить у плюс" style="rounded=1;whiteSpace=wrap;html=1;" vertex="1" parent="1">
          <mxGeometry x="2340" y="1550" width="160" height="30" as="geometry" />
        </mxCell>
        <mxCell id="4FyZ5yrcWeWUMqT4MnUz-83" value="Фінансова нестабільність" style="rounded=1;whiteSpace=wrap;html=1;" vertex="1" parent="1">
          <mxGeometry x="2340" y="1480" width="160" height="30" as="geometry" />
        </mxCell>
        <mxCell id="4FyZ5yrcWeWUMqT4MnUz-84" value="Припинення діяльності проєкту" style="rounded=1;whiteSpace=wrap;html=1;" vertex="1" parent="1">
          <mxGeometry x="2340" y="1410" width="160" height="30" as="geometry" />
        </mxCell>
        <mxCell id="4FyZ5yrcWeWUMqT4MnUz-85" value="" style="endArrow=classic;html=1;rounded=0;" edge="1" parent="1" source="4FyZ5yrcWeWUMqT4MnUz-78" target="4FyZ5yrcWeWUMqT4MnUz-79">
          <mxGeometry width="50" height="50" relative="1" as="geometry">
            <mxPoint x="2370" y="1900" as="sourcePoint" />
            <mxPoint x="2420" y="1850" as="targetPoint" />
            <Array as="points">
              <mxPoint x="2300" y="1740" />
              <mxPoint x="2180" y="1740" />
            </Array>
          </mxGeometry>
        </mxCell>
        <mxCell id="4FyZ5yrcWeWUMqT4MnUz-86" value="" style="endArrow=classic;html=1;rounded=0;" edge="1" parent="1" source="4FyZ5yrcWeWUMqT4MnUz-78" target="4FyZ5yrcWeWUMqT4MnUz-80">
          <mxGeometry width="50" height="50" relative="1" as="geometry">
            <mxPoint x="2320" y="1880" as="sourcePoint" />
            <mxPoint x="2370" y="1830" as="targetPoint" />
            <Array as="points">
              <mxPoint x="2300" y="1740" />
              <mxPoint x="2420" y="1740" />
            </Array>
          </mxGeometry>
        </mxCell>
        <mxCell id="4FyZ5yrcWeWUMqT4MnUz-87" value="" style="endArrow=classic;html=1;rounded=0;" edge="1" parent="1" source="4FyZ5yrcWeWUMqT4MnUz-80" target="4FyZ5yrcWeWUMqT4MnUz-81">
          <mxGeometry width="50" height="50" relative="1" as="geometry">
            <mxPoint x="2540" y="1740" as="sourcePoint" />
            <mxPoint x="2590" y="1690" as="targetPoint" />
          </mxGeometry>
        </mxCell>
        <mxCell id="4FyZ5yrcWeWUMqT4MnUz-88" value="" style="endArrow=classic;html=1;rounded=0;" edge="1" parent="1" source="4FyZ5yrcWeWUMqT4MnUz-81" target="4FyZ5yrcWeWUMqT4MnUz-82">
          <mxGeometry width="50" height="50" relative="1" as="geometry">
            <mxPoint x="2130" y="1640" as="sourcePoint" />
            <mxPoint x="2180" y="1590" as="targetPoint" />
          </mxGeometry>
        </mxCell>
        <mxCell id="4FyZ5yrcWeWUMqT4MnUz-89" value="" style="endArrow=classic;html=1;rounded=0;" edge="1" parent="1" source="4FyZ5yrcWeWUMqT4MnUz-82" target="4FyZ5yrcWeWUMqT4MnUz-83">
          <mxGeometry width="50" height="50" relative="1" as="geometry">
            <mxPoint x="2280" y="1600" as="sourcePoint" />
            <mxPoint x="2330" y="1550" as="targetPoint" />
          </mxGeometry>
        </mxCell>
        <mxCell id="4FyZ5yrcWeWUMqT4MnUz-90" value="" style="endArrow=classic;html=1;rounded=0;" edge="1" parent="1" source="4FyZ5yrcWeWUMqT4MnUz-83" target="4FyZ5yrcWeWUMqT4MnUz-84">
          <mxGeometry width="50" height="50" relative="1" as="geometry">
            <mxPoint x="2290" y="1510" as="sourcePoint" />
            <mxPoint x="2340" y="1460" as="targetPoint" />
          </mxGeometry>
        </mxCell>
        <mxCell id="4FyZ5yrcWeWUMqT4MnUz-91" value="Командна демотивація" style="rounded=1;whiteSpace=wrap;html=1;" vertex="1" parent="1">
          <mxGeometry x="2660" y="1770" width="160" height="30" as="geometry" />
        </mxCell>
        <mxCell id="4FyZ5yrcWeWUMqT4MnUz-92" value="Відсутність чітких ролей" style="rounded=1;whiteSpace=wrap;html=1;" vertex="1" parent="1">
          <mxGeometry x="2540" y="1690" width="160" height="30" as="geometry" />
        </mxCell>
        <mxCell id="4FyZ5yrcWeWUMqT4MnUz-93" value="Високе навантаження" style="rounded=1;whiteSpace=wrap;html=1;" vertex="1" parent="1">
          <mxGeometry x="2780" y="1690" width="160" height="30" as="geometry" />
        </mxCell>
        <mxCell id="4FyZ5yrcWeWUMqT4MnUz-94" value="Низька залученість" style="rounded=1;whiteSpace=wrap;html=1;" vertex="1" parent="1">
          <mxGeometry x="2780" y="1620" width="160" height="30" as="geometry" />
        </mxCell>
        <mxCell id="4FyZ5yrcWeWUMqT4MnUz-95" value=" Зниження продуктивності" style="rounded=1;whiteSpace=wrap;html=1;" vertex="1" parent="1">
          <mxGeometry x="2780" y="1550" width="160" height="30" as="geometry" />
        </mxCell>
        <mxCell id="4FyZ5yrcWeWUMqT4MnUz-96" value="Дедлайни не виконуються" style="rounded=1;whiteSpace=wrap;html=1;" vertex="1" parent="1">
          <mxGeometry x="2780" y="1480" width="160" height="30" as="geometry" />
        </mxCell>
        <mxCell id="4FyZ5yrcWeWUMqT4MnUz-97" value="Проєкт втрачає темп" style="rounded=1;whiteSpace=wrap;html=1;" vertex="1" parent="1">
          <mxGeometry x="2780" y="1410" width="160" height="30" as="geometry" />
        </mxCell>
        <mxCell id="4FyZ5yrcWeWUMqT4MnUz-98" value="" style="endArrow=classic;html=1;rounded=0;" edge="1" parent="1" source="4FyZ5yrcWeWUMqT4MnUz-91" target="4FyZ5yrcWeWUMqT4MnUz-92">
          <mxGeometry width="50" height="50" relative="1" as="geometry">
            <mxPoint x="2810" y="1900" as="sourcePoint" />
            <mxPoint x="2860" y="1850" as="targetPoint" />
            <Array as="points">
              <mxPoint x="2740" y="1740" />
              <mxPoint x="2620" y="1740" />
            </Array>
          </mxGeometry>
        </mxCell>
        <mxCell id="4FyZ5yrcWeWUMqT4MnUz-99" value="" style="endArrow=classic;html=1;rounded=0;" edge="1" parent="1" source="4FyZ5yrcWeWUMqT4MnUz-91" target="4FyZ5yrcWeWUMqT4MnUz-93">
          <mxGeometry width="50" height="50" relative="1" as="geometry">
            <mxPoint x="2760" y="1880" as="sourcePoint" />
            <mxPoint x="2810" y="1830" as="targetPoint" />
            <Array as="points">
              <mxPoint x="2740" y="1740" />
              <mxPoint x="2860" y="1740" />
            </Array>
          </mxGeometry>
        </mxCell>
        <mxCell id="4FyZ5yrcWeWUMqT4MnUz-100" value="" style="endArrow=classic;html=1;rounded=0;" edge="1" parent="1" source="4FyZ5yrcWeWUMqT4MnUz-93" target="4FyZ5yrcWeWUMqT4MnUz-94">
          <mxGeometry width="50" height="50" relative="1" as="geometry">
            <mxPoint x="2980" y="1740" as="sourcePoint" />
            <mxPoint x="3030" y="1690" as="targetPoint" />
          </mxGeometry>
        </mxCell>
        <mxCell id="4FyZ5yrcWeWUMqT4MnUz-101" value="" style="endArrow=classic;html=1;rounded=0;" edge="1" parent="1" source="4FyZ5yrcWeWUMqT4MnUz-94" target="4FyZ5yrcWeWUMqT4MnUz-95">
          <mxGeometry width="50" height="50" relative="1" as="geometry">
            <mxPoint x="2570" y="1640" as="sourcePoint" />
            <mxPoint x="2620" y="1590" as="targetPoint" />
          </mxGeometry>
        </mxCell>
        <mxCell id="4FyZ5yrcWeWUMqT4MnUz-102" value="" style="endArrow=classic;html=1;rounded=0;" edge="1" parent="1" source="4FyZ5yrcWeWUMqT4MnUz-95" target="4FyZ5yrcWeWUMqT4MnUz-96">
          <mxGeometry width="50" height="50" relative="1" as="geometry">
            <mxPoint x="2720" y="1600" as="sourcePoint" />
            <mxPoint x="2770" y="1550" as="targetPoint" />
          </mxGeometry>
        </mxCell>
        <mxCell id="4FyZ5yrcWeWUMqT4MnUz-103" value="" style="endArrow=classic;html=1;rounded=0;" edge="1" parent="1" source="4FyZ5yrcWeWUMqT4MnUz-96" target="4FyZ5yrcWeWUMqT4MnUz-97">
          <mxGeometry width="50" height="50" relative="1" as="geometry">
            <mxPoint x="2730" y="1510" as="sourcePoint" />
            <mxPoint x="2780" y="1460" as="targetPoint" />
          </mxGeometry>
        </mxCell>
        <mxCell id="4FyZ5yrcWeWUMqT4MnUz-104" value="" style="endArrow=classic;html=1;rounded=0;" edge="1" parent="1" source="2TERXjn3XIddRPtHSyQH-3" target="4FyZ5yrcWeWUMqT4MnUz-46">
          <mxGeometry width="50" height="50" relative="1" as="geometry">
            <mxPoint x="1200" y="1930" as="sourcePoint" />
            <mxPoint x="1250" y="1880" as="targetPoint" />
            <Array as="points">
              <mxPoint x="1920" y="1840" />
              <mxPoint x="1150" y="1840" />
            </Array>
          </mxGeometry>
        </mxCell>
        <mxCell id="4FyZ5yrcWeWUMqT4MnUz-105" value="" style="endArrow=classic;html=1;rounded=0;" edge="1" parent="1" source="2TERXjn3XIddRPtHSyQH-3" target="4FyZ5yrcWeWUMqT4MnUz-47">
          <mxGeometry width="50" height="50" relative="1" as="geometry">
            <mxPoint x="1360" y="1980" as="sourcePoint" />
            <mxPoint x="1410" y="1930" as="targetPoint" />
            <Array as="points">
              <mxPoint x="1920" y="1840" />
              <mxPoint x="1730" y="1840" />
            </Array>
          </mxGeometry>
        </mxCell>
        <mxCell id="4FyZ5yrcWeWUMqT4MnUz-106" value="" style="endArrow=classic;html=1;rounded=0;" edge="1" parent="1" source="2TERXjn3XIddRPtHSyQH-3" target="4FyZ5yrcWeWUMqT4MnUz-78">
          <mxGeometry width="50" height="50" relative="1" as="geometry">
            <mxPoint x="2100" y="1860" as="sourcePoint" />
            <mxPoint x="2150" y="1810" as="targetPoint" />
            <Array as="points">
              <mxPoint x="1920" y="1840" />
              <mxPoint x="2300" y="1840" />
            </Array>
          </mxGeometry>
        </mxCell>
        <mxCell id="4FyZ5yrcWeWUMqT4MnUz-107" value="" style="endArrow=classic;html=1;rounded=0;" edge="1" parent="1" source="2TERXjn3XIddRPtHSyQH-3" target="4FyZ5yrcWeWUMqT4MnUz-91">
          <mxGeometry width="50" height="50" relative="1" as="geometry">
            <mxPoint x="2310" y="1960" as="sourcePoint" />
            <mxPoint x="2360" y="1910" as="targetPoint" />
            <Array as="points">
              <mxPoint x="1920" y="1840" />
              <mxPoint x="2740" y="1840" />
            </Array>
          </mxGeometry>
        </mxCell>
        <mxCell id="4FyZ5yrcWeWUMqT4MnUz-108" value="Втрата ресурсу, довіри, ентузіазму" style="rounded=1;whiteSpace=wrap;html=1;" vertex="1" parent="1">
          <mxGeometry x="1840" y="1260" width="160" height="30" as="geometry" />
        </mxCell>
        <mxCell id="4FyZ5yrcWeWUMqT4MnUz-109" value="Неможливість масштабування" style="rounded=1;whiteSpace=wrap;html=1;" vertex="1" parent="1">
          <mxGeometry x="1840" y="1170" width="160" height="30" as="geometry" />
        </mxCell>
        <mxCell id="4FyZ5yrcWeWUMqT4MnUz-110" value="Згортання або провал бізнесу" style="rounded=1;whiteSpace=wrap;html=1;" vertex="1" parent="1">
          <mxGeometry x="1840" y="1090" width="160" height="30" as="geometry" />
        </mxCell>
        <mxCell id="4FyZ5yrcWeWUMqT4MnUz-111" value="" style="endArrow=classic;html=1;rounded=0;" edge="1" parent="1" source="4FyZ5yrcWeWUMqT4MnUz-108" target="4FyZ5yrcWeWUMqT4MnUz-109">
          <mxGeometry width="50" height="50" relative="1" as="geometry">
            <mxPoint x="1510" y="1290" as="sourcePoint" />
            <mxPoint x="1560" y="1240" as="targetPoint" />
          </mxGeometry>
        </mxCell>
        <mxCell id="4FyZ5yrcWeWUMqT4MnUz-112" value="" style="endArrow=classic;html=1;rounded=0;" edge="1" parent="1" source="4FyZ5yrcWeWUMqT4MnUz-109" target="4FyZ5yrcWeWUMqT4MnUz-110">
          <mxGeometry width="50" height="50" relative="1" as="geometry">
            <mxPoint x="1730" y="1210" as="sourcePoint" />
            <mxPoint x="1780" y="1160" as="targetPoint" />
          </mxGeometry>
        </mxCell>
        <mxCell id="4FyZ5yrcWeWUMqT4MnUz-113" value="" style="endArrow=classic;html=1;rounded=0;" edge="1" parent="1" source="4FyZ5yrcWeWUMqT4MnUz-68" target="4FyZ5yrcWeWUMqT4MnUz-108">
          <mxGeometry width="50" height="50" relative="1" as="geometry">
            <mxPoint x="1200" y="1310" as="sourcePoint" />
            <mxPoint x="1250" y="1260" as="targetPoint" />
            <Array as="points">
              <mxPoint x="1730" y="1340" />
              <mxPoint x="1920" y="1340" />
            </Array>
          </mxGeometry>
        </mxCell>
        <mxCell id="4FyZ5yrcWeWUMqT4MnUz-114" value="" style="endArrow=none;html=1;rounded=0;" edge="1" parent="1" target="4FyZ5yrcWeWUMqT4MnUz-69">
          <mxGeometry width="50" height="50" relative="1" as="geometry">
            <mxPoint x="1920" y="1340" as="sourcePoint" />
            <mxPoint x="1300" y="1290" as="targetPoint" />
            <Array as="points">
              <mxPoint x="1965" y="1340" />
            </Array>
          </mxGeometry>
        </mxCell>
        <mxCell id="4FyZ5yrcWeWUMqT4MnUz-115" value="" style="endArrow=none;html=1;rounded=0;" edge="1" parent="1" source="4FyZ5yrcWeWUMqT4MnUz-55">
          <mxGeometry width="50" height="50" relative="1" as="geometry">
            <mxPoint x="1210" y="1410" as="sourcePoint" />
            <mxPoint x="1920" y="1340" as="targetPoint" />
            <Array as="points">
              <mxPoint x="1270" y="1340" />
            </Array>
          </mxGeometry>
        </mxCell>
        <mxCell id="4FyZ5yrcWeWUMqT4MnUz-116" value="" style="endArrow=none;html=1;rounded=0;" edge="1" parent="1" source="4FyZ5yrcWeWUMqT4MnUz-54">
          <mxGeometry width="50" height="50" relative="1" as="geometry">
            <mxPoint x="1090" y="1400" as="sourcePoint" />
            <mxPoint x="1920" y="1340" as="targetPoint" />
            <Array as="points">
              <mxPoint x="1030" y="1340" />
            </Array>
          </mxGeometry>
        </mxCell>
        <mxCell id="4FyZ5yrcWeWUMqT4MnUz-117" value="" style="endArrow=none;html=1;rounded=0;" edge="1" parent="1" target="4FyZ5yrcWeWUMqT4MnUz-84">
          <mxGeometry width="50" height="50" relative="1" as="geometry">
            <mxPoint x="1920" y="1340" as="sourcePoint" />
            <mxPoint x="2170" y="1340" as="targetPoint" />
            <Array as="points">
              <mxPoint x="2420" y="1340" />
            </Array>
          </mxGeometry>
        </mxCell>
        <mxCell id="4FyZ5yrcWeWUMqT4MnUz-119" value="" style="endArrow=none;html=1;rounded=0;" edge="1" parent="1" source="4FyZ5yrcWeWUMqT4MnUz-97">
          <mxGeometry width="50" height="50" relative="1" as="geometry">
            <mxPoint x="2580" y="1320" as="sourcePoint" />
            <mxPoint x="1920" y="1340" as="targetPoint" />
            <Array as="points">
              <mxPoint x="2860" y="1340" />
            </Array>
          </mxGeometry>
        </mxCell>
        <mxCell id="4FyZ5yrcWeWUMqT4MnUz-120" value="" style="endArrow=none;html=1;rounded=0;" edge="1" parent="1" source="4FyZ5yrcWeWUMqT4MnUz-79">
          <mxGeometry width="50" height="50" relative="1" as="geometry">
            <mxPoint x="2110" y="1590" as="sourcePoint" />
            <mxPoint x="2180" y="1340" as="targetPoint" />
          </mxGeometry>
        </mxCell>
        <mxCell id="4FyZ5yrcWeWUMqT4MnUz-121" value="" style="endArrow=none;html=1;rounded=0;" edge="1" parent="1" source="4FyZ5yrcWeWUMqT4MnUz-92">
          <mxGeometry width="50" height="50" relative="1" as="geometry">
            <mxPoint x="2590" y="1550" as="sourcePoint" />
            <mxPoint x="2620" y="1340" as="targetPoint" />
          </mxGeometry>
        </mxCell>
        <mxCell id="4FyZ5yrcWeWUMqT4MnUz-122" value="" style="endArrow=none;html=1;rounded=0;" edge="1" parent="1" source="4FyZ5yrcWeWUMqT4MnUz-63">
          <mxGeometry width="50" height="50" relative="1" as="geometry">
            <mxPoint x="1530" y="1610" as="sourcePoint" />
            <mxPoint x="1615" y="1340" as="targetPoint" />
          </mxGeometry>
        </mxCell>
        <mxCell id="4FyZ5yrcWeWUMqT4MnUz-123" value="" style="endArrow=none;html=1;rounded=0;" edge="1" parent="1" source="4FyZ5yrcWeWUMqT4MnUz-56">
          <mxGeometry width="50" height="50" relative="1" as="geometry">
            <mxPoint x="1440" y="1610" as="sourcePoint" />
            <mxPoint x="1385" y="1340" as="targetPoint" />
          </mxGeometry>
        </mxCell>
        <mxCell id="4FyZ5yrcWeWUMqT4MnUz-124" value="" style="endArrow=none;html=1;rounded=0;" edge="1" parent="1" source="4FyZ5yrcWeWUMqT4MnUz-51">
          <mxGeometry width="50" height="50" relative="1" as="geometry">
            <mxPoint x="820" y="1640" as="sourcePoint" />
            <mxPoint x="1030" y="1340" as="targetPoint" />
            <Array as="points">
              <mxPoint x="950" y="1640" />
              <mxPoint x="880" y="1640" />
              <mxPoint x="880" y="1340" />
            </Array>
          </mxGeometry>
        </mxCell>
      </root>
    </mxGraphModel>
  </diagram>
  <diagram id="OGOOGGqdoM5Guk_4PcJo" name="Стратегічний вибір">
    <mxGraphModel dx="7101" dy="5161" grid="1" gridSize="10" guides="1" tooltips="1" connect="1" arrows="1" fold="1" page="1" pageScale="1" pageWidth="4000" pageHeight="4000" math="0" shadow="0">
      <root>
        <mxCell id="0" />
        <mxCell id="1" parent="0" />
        <mxCell id="l9T7b7WJhytsVDeP15Be-14" style="rounded=0;orthogonalLoop=1;jettySize=auto;html=1;entryX=0.5;entryY=0;entryDx=0;entryDy=0;" parent="1" source="H_3BCTPEViELKSTgocHl-1" target="SByfMA2yRuPOk2KvwEN4-4" edge="1">
          <mxGeometry relative="1" as="geometry">
            <Array as="points">
              <mxPoint x="-55" y="210" />
              <mxPoint x="-290" y="210" />
            </Array>
          </mxGeometry>
        </mxCell>
        <mxCell id="l9T7b7WJhytsVDeP15Be-15" style="rounded=0;orthogonalLoop=1;jettySize=auto;html=1;" parent="1" source="H_3BCTPEViELKSTgocHl-1" target="6Bxzg-V-2YeBhyBwbAZG-4" edge="1">
          <mxGeometry relative="1" as="geometry">
            <Array as="points">
              <mxPoint x="-55" y="210" />
              <mxPoint x="180" y="210" />
            </Array>
          </mxGeometry>
        </mxCell>
        <mxCell id="H_3BCTPEViELKSTgocHl-1" value="&lt;font style=&quot;font-size: 14px;&quot;&gt;&lt;b&gt;Стратегiчний напрям А&lt;/b&gt;&lt;/font&gt;&lt;div&gt;&lt;span style=&quot;background-color: transparent; color: light-dark(rgb(0, 0, 0), rgb(255, 255, 255));&quot;&gt;Надійність сервісу та підтримка клієнтів.&lt;/span&gt;&lt;div&gt;&lt;br&gt;Забезпечення стабільного та прозорого обслуговування для формування довіри з першої покупки.&lt;/div&gt;&lt;/div&gt;" style="rounded=0;whiteSpace=wrap;html=1;fillColor=#dae8fc;strokeColor=#6c8ebf;fontStyle=0" parent="1" vertex="1">
          <mxGeometry x="-180" y="27.5" width="250" height="115" as="geometry" />
        </mxCell>
        <mxCell id="l9T7b7WJhytsVDeP15Be-3" style="edgeStyle=orthogonalEdgeStyle;rounded=0;orthogonalLoop=1;jettySize=auto;html=1;" parent="1" source="77Sr0_xiRVkMZ5RGu8vo-2" target="H_3BCTPEViELKSTgocHl-1" edge="1">
          <mxGeometry relative="1" as="geometry" />
        </mxCell>
        <mxCell id="l9T7b7WJhytsVDeP15Be-4" style="edgeStyle=orthogonalEdgeStyle;rounded=0;orthogonalLoop=1;jettySize=auto;html=1;" parent="1" source="77Sr0_xiRVkMZ5RGu8vo-2" target="6Bxzg-V-2YeBhyBwbAZG-1" edge="1">
          <mxGeometry relative="1" as="geometry" />
        </mxCell>
        <mxCell id="l9T7b7WJhytsVDeP15Be-5" style="edgeStyle=orthogonalEdgeStyle;rounded=0;orthogonalLoop=1;jettySize=auto;html=1;" parent="1" source="77Sr0_xiRVkMZ5RGu8vo-2" target="6Bxzg-V-2YeBhyBwbAZG-2" edge="1">
          <mxGeometry relative="1" as="geometry" />
        </mxCell>
        <mxCell id="77Sr0_xiRVkMZ5RGu8vo-2" value="&lt;font style=&quot;&quot;&gt;&lt;span style=&quot;font-size: 20px;&quot;&gt;Стратегiчне бачення -&lt;/span&gt;&lt;br&gt;&lt;span style=&quot;font-size: 20px; font-weight: 400;&quot;&gt;Стати впізнаваним і довіреним онлайн-магазином у своїй ніші впродовж 3 років, використовуючи сильні сторони компанії для стабільного зростання, автоматизації процесів і розвитку партнерств.&lt;/span&gt;&lt;/font&gt;" style="rounded=0;whiteSpace=wrap;html=1;fontSize=22;fontStyle=1;strokeColor=#6c8ebf;fillColor=#dae8fc;" parent="1" vertex="1">
          <mxGeometry x="890" width="460" height="170" as="geometry" />
        </mxCell>
        <mxCell id="6Bxzg-V-2YeBhyBwbAZG-1" value="&lt;font style=&quot;font-size: 14px;&quot;&gt;&lt;b&gt;Стратегiчний напрям B&lt;/b&gt;&lt;/font&gt;&lt;div&gt;&lt;span style=&quot;background-color: transparent; color: light-dark(rgb(0, 0, 0), rgb(255, 255, 255));&quot;&gt;Автоматизація ключових процесів&lt;/span&gt;&lt;div&gt;&lt;div&gt;&lt;br&gt;&lt;/div&gt;&lt;div&gt;Впровадження систем (CRM, ERP, аналітика), які зменшують навантаження та помилки.&lt;/div&gt;&lt;/div&gt;&lt;/div&gt;" style="rounded=0;whiteSpace=wrap;html=1;fillColor=#dae8fc;strokeColor=#6c8ebf;fontStyle=0" parent="1" vertex="1">
          <mxGeometry x="395" y="870" width="240" height="120" as="geometry" />
        </mxCell>
        <mxCell id="6Bxzg-V-2YeBhyBwbAZG-2" value="&lt;font style=&quot;font-size: 14px;&quot;&gt;&lt;b&gt;Стратегiчний&lt;br&gt;напрям C&lt;/b&gt;&lt;/font&gt;&lt;div&gt;&lt;span style=&quot;background-color: transparent; color: light-dark(rgb(0, 0, 0), rgb(255, 255, 255));&quot;&gt;Побудова репутації та кібербезпеки&lt;/span&gt;&lt;div&gt;&lt;font size=&quot;3&quot;&gt;&lt;br&gt;&lt;/font&gt;&lt;/div&gt;&lt;div&gt;Зниження ризиків через дотримання норм, безпеку даних і публічну надійність.&lt;font size=&quot;3&quot;&gt;&lt;/font&gt;&lt;/div&gt;&lt;/div&gt;" style="rounded=0;whiteSpace=wrap;html=1;fillColor=#dae8fc;strokeColor=#6c8ebf;fontStyle=0" parent="1" vertex="1">
          <mxGeometry x="1002.5" y="240" width="235" height="130" as="geometry" />
        </mxCell>
        <mxCell id="6Bxzg-V-2YeBhyBwbAZG-4" value="&lt;div&gt;&lt;div&gt;&lt;div&gt;&lt;font style=&quot;font-size: 14px;&quot;&gt;&lt;b&gt;Стратегiчна цiль A.2&lt;/b&gt;&lt;/font&gt;&lt;/div&gt;&lt;div&gt;&lt;span style=&quot;font-size: 14px; background-color: transparent; color: light-dark(rgb(0, 0, 0), rgb(255, 255, 255));&quot;&gt;&lt;br&gt;&lt;/span&gt;&lt;/div&gt;&lt;div&gt;&lt;span style=&quot;font-size: 14px; background-color: transparent; color: light-dark(rgb(0, 0, 0), rgb(255, 255, 255));&quot;&gt;Забезпечити прозорість та контроль процесу доставки&lt;/span&gt;&lt;/div&gt;&lt;/div&gt;&lt;/div&gt;" style="rounded=0;whiteSpace=wrap;html=1;" parent="1" vertex="1">
          <mxGeometry x="70" y="280" width="220" height="100" as="geometry" />
        </mxCell>
        <mxCell id="SByfMA2yRuPOk2KvwEN4-4" value="&lt;div&gt;&lt;div&gt;&lt;font style=&quot;font-size: 14px;&quot;&gt;&lt;b&gt;Стратегiчна цiль A.1&lt;/b&gt;&lt;/font&gt;&lt;/div&gt;&lt;div&gt;&lt;span style=&quot;font-size: 14px; background-color: transparent; color: light-dark(rgb(0, 0, 0), rgb(255, 255, 255));&quot;&gt;&lt;br&gt;&lt;/span&gt;&lt;/div&gt;&lt;div&gt;&lt;span style=&quot;font-size: 14px; background-color: transparent; color: light-dark(rgb(0, 0, 0), rgb(255, 255, 255));&quot;&gt;Підвищити швидкість та якість обробки звернень клієнтів&lt;/span&gt;&lt;/div&gt;&lt;/div&gt;" style="rounded=0;whiteSpace=wrap;html=1;" parent="1" vertex="1">
          <mxGeometry x="-400" y="280" width="220" height="100" as="geometry" />
        </mxCell>
        <mxCell id="l9T7b7WJhytsVDeP15Be-2" style="edgeStyle=orthogonalEdgeStyle;rounded=0;orthogonalLoop=1;jettySize=auto;html=1;" parent="1" source="l9T7b7WJhytsVDeP15Be-1" target="77Sr0_xiRVkMZ5RGu8vo-2" edge="1">
          <mxGeometry relative="1" as="geometry" />
        </mxCell>
        <mxCell id="l9T7b7WJhytsVDeP15Be-1" value="&lt;font style=&quot;font-size: 20px;&quot;&gt;&lt;b style=&quot;&quot;&gt;Мiсiя&lt;/b&gt;&lt;/font&gt;&lt;div&gt;&lt;font style=&quot;font-size: 18px;&quot;&gt;Надавати клієнтам зручний доступ до якісних товарів онлайн, забезпечуючи прозорий сервіс, швидку доставку та індивідуальний підхід, з опорою на сучасні технології та автоматизацію.&lt;/font&gt;&lt;/div&gt;" style="rounded=0;whiteSpace=wrap;html=1;fillColor=#dae8fc;strokeColor=#6c8ebf;fontStyle=0" parent="1" vertex="1">
          <mxGeometry x="890" y="-230" width="460" height="160" as="geometry" />
        </mxCell>
        <mxCell id="l9T7b7WJhytsVDeP15Be-44" value="&lt;strong data-end=&quot;73&quot; data-start=&quot;48&quot;&gt;ОПЕРАТИВНА ЦІЛЬ A.1.1&lt;/strong&gt;&lt;div&gt;&lt;br&gt;&lt;/div&gt;&lt;div&gt;Впровадити чат-бот на сайті&lt;/div&gt;" style="rounded=0;whiteSpace=wrap;html=1;" parent="1" vertex="1">
          <mxGeometry x="-530" y="480" width="220" height="100" as="geometry" />
        </mxCell>
        <mxCell id="l9T7b7WJhytsVDeP15Be-45" value="&lt;strong data-end=&quot;231&quot; data-start=&quot;206&quot;&gt;ОПЕРАТИВНА ЦІЛЬ A.1.2&lt;/strong&gt;&lt;div&gt;&lt;br&gt;&lt;/div&gt;&lt;div&gt;Розробити шаблони відповідей&lt;/div&gt;" style="rounded=0;whiteSpace=wrap;html=1;" parent="1" vertex="1">
          <mxGeometry x="-280" y="480" width="220" height="100" as="geometry" />
        </mxCell>
        <mxCell id="l9T7b7WJhytsVDeP15Be-46" value="&lt;strong data-end=&quot;73&quot; data-start=&quot;48&quot;&gt;ОПЕРАТИВНА ЦІЛЬ A.2.1&lt;/strong&gt;&lt;div&gt;&lt;br&gt;&lt;/div&gt;&lt;div&gt;Інтегрувати трекінг доставок&lt;/div&gt;" style="rounded=0;whiteSpace=wrap;html=1;" parent="1" vertex="1">
          <mxGeometry x="-40" y="480" width="220" height="100" as="geometry" />
        </mxCell>
        <mxCell id="l9T7b7WJhytsVDeP15Be-48" value="&lt;strong data-end=&quot;248&quot; data-start=&quot;223&quot;&gt;ОПЕРАТИВНА ЦІЛЬ A.2.2&lt;/strong&gt;&lt;div&gt;&lt;span style=&quot;background-color: transparent;&quot;&gt;&lt;br&gt;&lt;/span&gt;&lt;/div&gt;&lt;div&gt;&lt;span style=&quot;background-color: transparent;&quot;&gt;Повідомлення клієнтам про статус замовлення&lt;/span&gt;&lt;div&gt;&lt;span style=&quot;background-color: transparent; color: light-dark(rgb(0, 0, 0), rgb(255, 255, 255));&quot;&gt;&lt;br&gt;&lt;/span&gt;&lt;/div&gt;&lt;/div&gt;" style="rounded=0;whiteSpace=wrap;html=1;" parent="1" vertex="1">
          <mxGeometry x="200" y="480" width="220" height="100" as="geometry" />
        </mxCell>
        <mxCell id="no3zrZCgEB3o4rFu9KWx-1" value="&lt;font style=&quot;font-size: 14px;&quot;&gt;&lt;b&gt;Стратегiчний&lt;br&gt;напрям D&lt;/b&gt;&lt;/font&gt;&lt;div&gt;&lt;span style=&quot;background-color: transparent; color: light-dark(rgb(0, 0, 0), rgb(255, 255, 255));&quot;&gt;Зменшення залежності від платного трафіку&lt;/span&gt;&lt;div&gt;&lt;font size=&quot;3&quot;&gt;&lt;br&gt;&lt;/font&gt;&lt;/div&gt;&lt;div&gt;Перехід від повної залежності до комбінованих джерел клієнтів.&lt;font size=&quot;3&quot;&gt;&lt;/font&gt;&lt;/div&gt;&lt;/div&gt;" style="rounded=0;whiteSpace=wrap;html=1;fillColor=#dae8fc;strokeColor=#6c8ebf;fontStyle=0" vertex="1" parent="1">
          <mxGeometry x="1570" y="865" width="235" height="130" as="geometry" />
        </mxCell>
        <mxCell id="no3zrZCgEB3o4rFu9KWx-2" value="" style="endArrow=classic;html=1;rounded=0;" edge="1" parent="1" source="77Sr0_xiRVkMZ5RGu8vo-2" target="no3zrZCgEB3o4rFu9KWx-1">
          <mxGeometry width="50" height="50" relative="1" as="geometry">
            <mxPoint x="1560" y="440" as="sourcePoint" />
            <mxPoint x="1610" y="390" as="targetPoint" />
            <Array as="points">
              <mxPoint x="1678" y="85" />
            </Array>
          </mxGeometry>
        </mxCell>
        <mxCell id="no3zrZCgEB3o4rFu9KWx-3" value="&lt;font style=&quot;font-size: 14px;&quot;&gt;&lt;b&gt;Стратегiчний&lt;br&gt;напрям E&lt;/b&gt;&lt;/font&gt;&lt;div&gt;&lt;span style=&quot;background-color: transparent; color: light-dark(rgb(0, 0, 0), rgb(255, 255, 255));&quot;&gt;Оптимізація логістики та управління ризиками доставки&lt;/span&gt;&lt;div&gt;&lt;br&gt;&lt;/div&gt;&lt;div&gt;Створення гнучкої логістичної моделі, яка дозволяє уникати зривів і затримок.&lt;font size=&quot;3&quot;&gt;&lt;/font&gt;&lt;/div&gt;&lt;/div&gt;" style="rounded=0;whiteSpace=wrap;html=1;fillColor=#dae8fc;strokeColor=#6c8ebf;fontStyle=0" vertex="1" parent="1">
          <mxGeometry x="2155" y="27.5" width="235" height="115" as="geometry" />
        </mxCell>
        <mxCell id="no3zrZCgEB3o4rFu9KWx-4" value="" style="endArrow=classic;html=1;rounded=0;" edge="1" parent="1" source="77Sr0_xiRVkMZ5RGu8vo-2" target="no3zrZCgEB3o4rFu9KWx-3">
          <mxGeometry width="50" height="50" relative="1" as="geometry">
            <mxPoint x="1580" y="220" as="sourcePoint" />
            <mxPoint x="1630" y="170" as="targetPoint" />
          </mxGeometry>
        </mxCell>
        <mxCell id="a_vOB0kZIbiTphz-7Nbd-10" value="" style="endArrow=classic;html=1;rounded=0;" edge="1" parent="1" source="SByfMA2yRuPOk2KvwEN4-4" target="l9T7b7WJhytsVDeP15Be-44">
          <mxGeometry width="50" height="50" relative="1" as="geometry">
            <mxPoint x="-910" y="380" as="sourcePoint" />
            <mxPoint x="-860" y="330" as="targetPoint" />
            <Array as="points">
              <mxPoint x="-290" y="430" />
              <mxPoint x="-420" y="430" />
            </Array>
          </mxGeometry>
        </mxCell>
        <mxCell id="a_vOB0kZIbiTphz-7Nbd-11" value="" style="endArrow=classic;html=1;rounded=0;" edge="1" parent="1" source="SByfMA2yRuPOk2KvwEN4-4" target="l9T7b7WJhytsVDeP15Be-45">
          <mxGeometry width="50" height="50" relative="1" as="geometry">
            <mxPoint x="-690" y="430" as="sourcePoint" />
            <mxPoint x="-640" y="380" as="targetPoint" />
            <Array as="points">
              <mxPoint x="-290" y="430" />
              <mxPoint x="-170" y="430" />
            </Array>
          </mxGeometry>
        </mxCell>
        <mxCell id="a_vOB0kZIbiTphz-7Nbd-12" value="" style="endArrow=classic;html=1;rounded=0;" edge="1" parent="1" source="6Bxzg-V-2YeBhyBwbAZG-4" target="l9T7b7WJhytsVDeP15Be-46">
          <mxGeometry width="50" height="50" relative="1" as="geometry">
            <mxPoint x="20" y="460" as="sourcePoint" />
            <mxPoint x="70" y="410" as="targetPoint" />
            <Array as="points">
              <mxPoint x="180" y="440" />
              <mxPoint x="70" y="440" />
            </Array>
          </mxGeometry>
        </mxCell>
        <mxCell id="a_vOB0kZIbiTphz-7Nbd-13" value="" style="endArrow=classic;html=1;rounded=0;" edge="1" parent="1" source="6Bxzg-V-2YeBhyBwbAZG-4" target="l9T7b7WJhytsVDeP15Be-48">
          <mxGeometry width="50" height="50" relative="1" as="geometry">
            <mxPoint x="40" y="460" as="sourcePoint" />
            <mxPoint x="90" y="410" as="targetPoint" />
            <Array as="points">
              <mxPoint x="180" y="440" />
              <mxPoint x="310" y="440" />
            </Array>
          </mxGeometry>
        </mxCell>
        <mxCell id="jApik-LnolIBYXWf8Z4d-1" style="rounded=0;orthogonalLoop=1;jettySize=auto;html=1;entryX=0.5;entryY=0;entryDx=0;entryDy=0;" edge="1" parent="1" target="jApik-LnolIBYXWf8Z4d-4">
          <mxGeometry relative="1" as="geometry">
            <mxPoint x="515" y="990" as="sourcePoint" />
            <Array as="points">
              <mxPoint x="515" y="1057" />
              <mxPoint x="280" y="1057" />
            </Array>
          </mxGeometry>
        </mxCell>
        <mxCell id="jApik-LnolIBYXWf8Z4d-2" style="rounded=0;orthogonalLoop=1;jettySize=auto;html=1;" edge="1" parent="1" target="jApik-LnolIBYXWf8Z4d-3" source="6Bxzg-V-2YeBhyBwbAZG-1">
          <mxGeometry relative="1" as="geometry">
            <mxPoint x="515" y="990" as="sourcePoint" />
            <Array as="points">
              <mxPoint x="515" y="1057" />
              <mxPoint x="750" y="1057" />
            </Array>
          </mxGeometry>
        </mxCell>
        <mxCell id="jApik-LnolIBYXWf8Z4d-3" value="&lt;div&gt;&lt;font style=&quot;font-size: 14px;&quot;&gt;&lt;b&gt;Стратегiчна цiль B.2&lt;/b&gt;&lt;/font&gt;&lt;/div&gt;&lt;div&gt;&lt;span style=&quot;font-size: 14px; background-color: transparent; color: light-dark(rgb(0, 0, 0), rgb(255, 255, 255));&quot;&gt;&lt;br&gt;&lt;/span&gt;&lt;/div&gt;&lt;div&gt;&lt;span style=&quot;font-size: 14px;&quot;&gt;Автоматизувати маркетингові процеси&lt;/span&gt;&lt;/div&gt;" style="rounded=0;whiteSpace=wrap;html=1;" vertex="1" parent="1">
          <mxGeometry x="640" y="1127" width="220" height="100" as="geometry" />
        </mxCell>
        <mxCell id="jApik-LnolIBYXWf8Z4d-4" value="&lt;div&gt;&lt;font style=&quot;font-size: 14px;&quot;&gt;&lt;b&gt;Стратегiчна цiль B.1&lt;/b&gt;&lt;/font&gt;&lt;/div&gt;&lt;div&gt;&lt;span style=&quot;font-size: 14px; background-color: transparent; color: light-dark(rgb(0, 0, 0), rgb(255, 255, 255));&quot;&gt;&lt;br&gt;&lt;/span&gt;&lt;/div&gt;&lt;div&gt;&lt;span style=&quot;font-size: 14px;&quot;&gt;Автоматизувати управління замовленнями та клієнтською базою&lt;/span&gt;&lt;/div&gt;" style="rounded=0;whiteSpace=wrap;html=1;" vertex="1" parent="1">
          <mxGeometry x="170" y="1127" width="220" height="100" as="geometry" />
        </mxCell>
        <mxCell id="jApik-LnolIBYXWf8Z4d-5" value="&lt;strong data-end=&quot;73&quot; data-start=&quot;48&quot;&gt;ОПЕРАТИВНА ЦІЛЬ B.1.1&lt;/strong&gt;&lt;div&gt;&lt;br&gt;&lt;/div&gt;&lt;div&gt;Впровадити CRM та сінхронізувати з CMS&lt;/div&gt;" style="rounded=0;whiteSpace=wrap;html=1;" vertex="1" parent="1">
          <mxGeometry x="40" y="1327" width="220" height="100" as="geometry" />
        </mxCell>
        <mxCell id="jApik-LnolIBYXWf8Z4d-6" value="&lt;strong data-end=&quot;231&quot; data-start=&quot;206&quot;&gt;ОПЕРАТИВНА ЦІЛЬ B.1.2&lt;/strong&gt;&lt;div&gt;&lt;span style=&quot;background-color: transparent; color: light-dark(rgb(0, 0, 0), rgb(255, 255, 255));&quot;&gt;&lt;br&gt;&lt;/span&gt;&lt;/div&gt;&lt;div&gt;&lt;span style=&quot;background-color: transparent; color: light-dark(rgb(0, 0, 0), rgb(255, 255, 255));&quot;&gt;Забезпечити оновлення клієнтських даних&lt;/span&gt;&lt;/div&gt;" style="rounded=0;whiteSpace=wrap;html=1;" vertex="1" parent="1">
          <mxGeometry x="290" y="1327" width="220" height="100" as="geometry" />
        </mxCell>
        <mxCell id="jApik-LnolIBYXWf8Z4d-7" value="&lt;strong data-end=&quot;73&quot; data-start=&quot;48&quot;&gt;ОПЕРАТИВНА ЦІЛЬ B.2.1&lt;/strong&gt;&lt;div&gt;&lt;br&gt;&lt;/div&gt;&lt;div&gt;Налаштувати email-розсилки&lt;/div&gt;" style="rounded=0;whiteSpace=wrap;html=1;" vertex="1" parent="1">
          <mxGeometry x="530" y="1327" width="220" height="100" as="geometry" />
        </mxCell>
        <mxCell id="jApik-LnolIBYXWf8Z4d-8" value="&lt;strong data-end=&quot;248&quot; data-start=&quot;223&quot;&gt;ОПЕРАТИВНА ЦІЛЬ B.2.2&lt;/strong&gt;&lt;div&gt;&lt;span style=&quot;background-color: transparent;&quot;&gt;&lt;br&gt;&lt;/span&gt;&lt;/div&gt;&lt;div&gt;&lt;div&gt;Використати тригери для кампаній&lt;/div&gt;&lt;div&gt;&lt;span style=&quot;background-color: transparent; color: light-dark(rgb(0, 0, 0), rgb(255, 255, 255));&quot;&gt;&lt;br&gt;&lt;/span&gt;&lt;/div&gt;&lt;/div&gt;" style="rounded=0;whiteSpace=wrap;html=1;" vertex="1" parent="1">
          <mxGeometry x="770" y="1327" width="220" height="100" as="geometry" />
        </mxCell>
        <mxCell id="jApik-LnolIBYXWf8Z4d-9" value="" style="endArrow=classic;html=1;rounded=0;" edge="1" parent="1" source="jApik-LnolIBYXWf8Z4d-4" target="jApik-LnolIBYXWf8Z4d-5">
          <mxGeometry width="50" height="50" relative="1" as="geometry">
            <mxPoint x="-340" y="1227" as="sourcePoint" />
            <mxPoint x="150" y="1327" as="targetPoint" />
            <Array as="points">
              <mxPoint x="280" y="1277" />
              <mxPoint x="150" y="1277" />
            </Array>
          </mxGeometry>
        </mxCell>
        <mxCell id="jApik-LnolIBYXWf8Z4d-10" value="" style="endArrow=classic;html=1;rounded=0;" edge="1" parent="1" source="jApik-LnolIBYXWf8Z4d-4" target="jApik-LnolIBYXWf8Z4d-6">
          <mxGeometry width="50" height="50" relative="1" as="geometry">
            <mxPoint x="-120" y="1277" as="sourcePoint" />
            <mxPoint x="-70" y="1227" as="targetPoint" />
            <Array as="points">
              <mxPoint x="280" y="1277" />
              <mxPoint x="400" y="1277" />
            </Array>
          </mxGeometry>
        </mxCell>
        <mxCell id="jApik-LnolIBYXWf8Z4d-11" value="" style="endArrow=classic;html=1;rounded=0;" edge="1" parent="1" source="jApik-LnolIBYXWf8Z4d-3" target="jApik-LnolIBYXWf8Z4d-7">
          <mxGeometry width="50" height="50" relative="1" as="geometry">
            <mxPoint x="590" y="1307" as="sourcePoint" />
            <mxPoint x="640" y="1257" as="targetPoint" />
            <Array as="points">
              <mxPoint x="750" y="1287" />
              <mxPoint x="640" y="1287" />
            </Array>
          </mxGeometry>
        </mxCell>
        <mxCell id="jApik-LnolIBYXWf8Z4d-12" value="" style="endArrow=classic;html=1;rounded=0;" edge="1" parent="1" source="jApik-LnolIBYXWf8Z4d-3" target="jApik-LnolIBYXWf8Z4d-8">
          <mxGeometry width="50" height="50" relative="1" as="geometry">
            <mxPoint x="610" y="1307" as="sourcePoint" />
            <mxPoint x="660" y="1257" as="targetPoint" />
            <Array as="points">
              <mxPoint x="750" y="1287" />
              <mxPoint x="880" y="1287" />
            </Array>
          </mxGeometry>
        </mxCell>
        <mxCell id="jApik-LnolIBYXWf8Z4d-13" style="rounded=0;orthogonalLoop=1;jettySize=auto;html=1;entryX=0.5;entryY=0;entryDx=0;entryDy=0;" edge="1" parent="1" target="jApik-LnolIBYXWf8Z4d-16" source="6Bxzg-V-2YeBhyBwbAZG-2">
          <mxGeometry relative="1" as="geometry">
            <mxPoint x="1127.53787878788" y="370" as="sourcePoint" />
            <Array as="points">
              <mxPoint x="1120" y="437" />
              <mxPoint x="890" y="437" />
            </Array>
          </mxGeometry>
        </mxCell>
        <mxCell id="jApik-LnolIBYXWf8Z4d-14" style="rounded=0;orthogonalLoop=1;jettySize=auto;html=1;" edge="1" parent="1" target="jApik-LnolIBYXWf8Z4d-15" source="6Bxzg-V-2YeBhyBwbAZG-2">
          <mxGeometry relative="1" as="geometry">
            <mxPoint x="1127.53787878788" y="370" as="sourcePoint" />
            <Array as="points">
              <mxPoint x="1120" y="437" />
              <mxPoint x="1360" y="437" />
            </Array>
          </mxGeometry>
        </mxCell>
        <mxCell id="jApik-LnolIBYXWf8Z4d-15" value="&lt;div&gt;&lt;font style=&quot;font-size: 14px;&quot;&gt;&lt;b&gt;Стратегiчна цiль C.2&lt;/b&gt;&lt;/font&gt;&lt;/div&gt;&lt;div&gt;&lt;span style=&quot;font-size: 14px; background-color: transparent; color: light-dark(rgb(0, 0, 0), rgb(255, 255, 255));&quot;&gt;&lt;br&gt;&lt;/span&gt;&lt;/div&gt;&lt;div&gt;&lt;span style=&quot;font-size: 14px;&quot;&gt;Покращити прозорість та довіру до бренду&lt;/span&gt;&lt;/div&gt;" style="rounded=0;whiteSpace=wrap;html=1;" vertex="1" parent="1">
          <mxGeometry x="1250" y="507" width="220" height="100" as="geometry" />
        </mxCell>
        <mxCell id="jApik-LnolIBYXWf8Z4d-16" value="&lt;div&gt;&lt;font style=&quot;font-size: 14px;&quot;&gt;&lt;b&gt;Стратегiчна цiль C.1&lt;/b&gt;&lt;/font&gt;&lt;/div&gt;&lt;div&gt;&lt;span style=&quot;font-size: 14px; background-color: transparent; color: light-dark(rgb(0, 0, 0), rgb(255, 255, 255));&quot;&gt;&lt;br&gt;&lt;/span&gt;&lt;/div&gt;&lt;div&gt;&lt;span style=&quot;font-size: 14px;&quot;&gt;Підвищити рівень безпеки користувачів&lt;/span&gt;&lt;/div&gt;" style="rounded=0;whiteSpace=wrap;html=1;" vertex="1" parent="1">
          <mxGeometry x="780" y="507" width="220" height="100" as="geometry" />
        </mxCell>
        <mxCell id="jApik-LnolIBYXWf8Z4d-25" value="" style="edgeStyle=orthogonalEdgeStyle;rounded=0;orthogonalLoop=1;jettySize=auto;html=1;" edge="1" parent="1" source="jApik-LnolIBYXWf8Z4d-17" target="jApik-LnolIBYXWf8Z4d-16">
          <mxGeometry relative="1" as="geometry" />
        </mxCell>
        <mxCell id="jApik-LnolIBYXWf8Z4d-17" value="&lt;strong data-end=&quot;73&quot; data-start=&quot;48&quot;&gt;ОПЕРАТИВНА ЦІЛЬ C.1.1&lt;/strong&gt;&lt;div&gt;&lt;br&gt;&lt;/div&gt;&lt;div&gt;Встановити SSL-сертифікат&lt;/div&gt;" style="rounded=0;whiteSpace=wrap;html=1;" vertex="1" parent="1">
          <mxGeometry x="650" y="707" width="220" height="100" as="geometry" />
        </mxCell>
        <mxCell id="jApik-LnolIBYXWf8Z4d-18" value="&lt;strong data-end=&quot;231&quot; data-start=&quot;206&quot;&gt;ОПЕРАТИВНА ЦІЛЬ C.1.2&lt;/strong&gt;&lt;div&gt;&lt;br&gt;&lt;/div&gt;&lt;div&gt;&lt;div&gt;Підключити захищені платіжні шлюзи&lt;/div&gt;&lt;/div&gt;" style="rounded=0;whiteSpace=wrap;html=1;" vertex="1" parent="1">
          <mxGeometry x="900" y="707" width="220" height="100" as="geometry" />
        </mxCell>
        <mxCell id="jApik-LnolIBYXWf8Z4d-19" value="&lt;strong data-end=&quot;73&quot; data-start=&quot;48&quot;&gt;ОПЕРАТИВНА ЦІЛЬ C.2.1&lt;/strong&gt;&lt;div&gt;&lt;br&gt;&lt;/div&gt;&lt;div&gt;&lt;div&gt;Розміщення відгуків клієнтів на сайті&lt;/div&gt;&lt;/div&gt;" style="rounded=0;whiteSpace=wrap;html=1;" vertex="1" parent="1">
          <mxGeometry x="1140" y="707" width="220" height="100" as="geometry" />
        </mxCell>
        <mxCell id="jApik-LnolIBYXWf8Z4d-20" value="&lt;strong data-end=&quot;248&quot; data-start=&quot;223&quot;&gt;ОПЕРАТИВНА ЦІЛЬ C.2.2&lt;/strong&gt;&lt;div&gt;&lt;span style=&quot;background-color: transparent;&quot;&gt;&lt;br&gt;&lt;/span&gt;&lt;/div&gt;&lt;div&gt;&lt;div&gt;&lt;span style=&quot;background-color: transparent;&quot;&gt;Опублікувати політику повернення&lt;/span&gt;&lt;/div&gt;&lt;/div&gt;" style="rounded=0;whiteSpace=wrap;html=1;" vertex="1" parent="1">
          <mxGeometry x="1380" y="707" width="220" height="100" as="geometry" />
        </mxCell>
        <mxCell id="jApik-LnolIBYXWf8Z4d-21" value="" style="endArrow=classic;html=1;rounded=0;" edge="1" parent="1" source="jApik-LnolIBYXWf8Z4d-16" target="jApik-LnolIBYXWf8Z4d-17">
          <mxGeometry width="50" height="50" relative="1" as="geometry">
            <mxPoint x="270" y="607" as="sourcePoint" />
            <mxPoint x="760" y="707" as="targetPoint" />
            <Array as="points">
              <mxPoint x="890" y="657" />
              <mxPoint x="760" y="657" />
            </Array>
          </mxGeometry>
        </mxCell>
        <mxCell id="jApik-LnolIBYXWf8Z4d-22" value="" style="endArrow=classic;html=1;rounded=0;" edge="1" parent="1" source="jApik-LnolIBYXWf8Z4d-16" target="jApik-LnolIBYXWf8Z4d-18">
          <mxGeometry width="50" height="50" relative="1" as="geometry">
            <mxPoint x="490" y="657" as="sourcePoint" />
            <mxPoint x="540" y="607" as="targetPoint" />
            <Array as="points">
              <mxPoint x="890" y="657" />
              <mxPoint x="1010" y="657" />
            </Array>
          </mxGeometry>
        </mxCell>
        <mxCell id="jApik-LnolIBYXWf8Z4d-23" value="" style="endArrow=classic;html=1;rounded=0;" edge="1" parent="1" source="jApik-LnolIBYXWf8Z4d-15" target="jApik-LnolIBYXWf8Z4d-19">
          <mxGeometry width="50" height="50" relative="1" as="geometry">
            <mxPoint x="1200" y="687" as="sourcePoint" />
            <mxPoint x="1250" y="637" as="targetPoint" />
            <Array as="points">
              <mxPoint x="1360" y="667" />
              <mxPoint x="1250" y="667" />
            </Array>
          </mxGeometry>
        </mxCell>
        <mxCell id="jApik-LnolIBYXWf8Z4d-24" value="" style="endArrow=classic;html=1;rounded=0;" edge="1" parent="1" source="jApik-LnolIBYXWf8Z4d-15" target="jApik-LnolIBYXWf8Z4d-20">
          <mxGeometry width="50" height="50" relative="1" as="geometry">
            <mxPoint x="1220" y="687" as="sourcePoint" />
            <mxPoint x="1490" y="707" as="targetPoint" />
            <Array as="points">
              <mxPoint x="1360" y="667" />
              <mxPoint x="1490" y="667" />
            </Array>
          </mxGeometry>
        </mxCell>
        <mxCell id="jApik-LnolIBYXWf8Z4d-27" style="rounded=0;orthogonalLoop=1;jettySize=auto;html=1;entryX=0.5;entryY=0;entryDx=0;entryDy=0;" edge="1" parent="1" target="jApik-LnolIBYXWf8Z4d-30" source="no3zrZCgEB3o4rFu9KWx-1">
          <mxGeometry relative="1" as="geometry">
            <mxPoint x="1687.5" y="995" as="sourcePoint" />
            <Array as="points">
              <mxPoint x="1687.5" y="1062" />
              <mxPoint x="1452.5" y="1062" />
            </Array>
          </mxGeometry>
        </mxCell>
        <mxCell id="jApik-LnolIBYXWf8Z4d-28" style="rounded=0;orthogonalLoop=1;jettySize=auto;html=1;" edge="1" parent="1" target="jApik-LnolIBYXWf8Z4d-29" source="no3zrZCgEB3o4rFu9KWx-1">
          <mxGeometry relative="1" as="geometry">
            <mxPoint x="1687.5" y="995" as="sourcePoint" />
            <Array as="points">
              <mxPoint x="1687.5" y="1062" />
              <mxPoint x="1922.5" y="1062" />
            </Array>
          </mxGeometry>
        </mxCell>
        <mxCell id="jApik-LnolIBYXWf8Z4d-29" value="&lt;div&gt;&lt;font style=&quot;font-size: 14px;&quot;&gt;&lt;b&gt;Стратегiчна цiль D.2&lt;/b&gt;&lt;/font&gt;&lt;/div&gt;&lt;div&gt;&lt;span style=&quot;font-size: 14px; background-color: transparent; color: light-dark(rgb(0, 0, 0), rgb(255, 255, 255));&quot;&gt;&lt;br&gt;&lt;/span&gt;&lt;/div&gt;&lt;div&gt;&lt;span style=&quot;font-size: 14px;&quot;&gt;Залучати клієнтів через програми лояльності&lt;/span&gt;&lt;/div&gt;" style="rounded=0;whiteSpace=wrap;html=1;" vertex="1" parent="1">
          <mxGeometry x="1812.5" y="1132" width="220" height="100" as="geometry" />
        </mxCell>
        <mxCell id="jApik-LnolIBYXWf8Z4d-30" value="&lt;div&gt;&lt;font style=&quot;font-size: 14px;&quot;&gt;&lt;b&gt;Стратегiчна цiль D.1&lt;/b&gt;&lt;/font&gt;&lt;/div&gt;&lt;div&gt;&lt;span style=&quot;font-size: 14px; background-color: transparent; color: light-dark(rgb(0, 0, 0), rgb(255, 255, 255));&quot;&gt;&lt;br&gt;&lt;/span&gt;&lt;/div&gt;&lt;div&gt;&lt;span style=&quot;font-size: 14px;&quot;&gt;Забезпечити органічний потік клієнтів&lt;/span&gt;&lt;/div&gt;" style="rounded=0;whiteSpace=wrap;html=1;" vertex="1" parent="1">
          <mxGeometry x="1342.5" y="1132" width="220" height="100" as="geometry" />
        </mxCell>
        <mxCell id="jApik-LnolIBYXWf8Z4d-31" value="&lt;strong data-end=&quot;73&quot; data-start=&quot;48&quot;&gt;ОПЕРАТИВНА ЦІЛЬ D.1.1&lt;/strong&gt;&lt;div&gt;&lt;br&gt;&lt;/div&gt;&lt;div&gt;&lt;div&gt;SEO-оптимізація сайту&lt;/div&gt;&lt;/div&gt;" style="rounded=0;whiteSpace=wrap;html=1;" vertex="1" parent="1">
          <mxGeometry x="1212.5" y="1332" width="220" height="100" as="geometry" />
        </mxCell>
        <mxCell id="jApik-LnolIBYXWf8Z4d-32" value="&lt;strong data-end=&quot;231&quot; data-start=&quot;206&quot;&gt;ОПЕРАТИВНА ЦІЛЬ D.1.2&lt;/strong&gt;&lt;div&gt;&lt;br&gt;&lt;/div&gt;&lt;div&gt;&lt;div&gt;Публікації в соцмережах&lt;/div&gt;&lt;/div&gt;" style="rounded=0;whiteSpace=wrap;html=1;" vertex="1" parent="1">
          <mxGeometry x="1462.5" y="1332" width="220" height="100" as="geometry" />
        </mxCell>
        <mxCell id="jApik-LnolIBYXWf8Z4d-33" value="&lt;strong data-end=&quot;73&quot; data-start=&quot;48&quot;&gt;ОПЕРАТИВНА ЦІЛЬ D.2.1&lt;/strong&gt;&lt;div&gt;&lt;br&gt;&lt;/div&gt;&lt;div&gt;&lt;div&gt;Запустити реферальну систему&lt;/div&gt;&lt;/div&gt;" style="rounded=0;whiteSpace=wrap;html=1;" vertex="1" parent="1">
          <mxGeometry x="1702.5" y="1332" width="220" height="100" as="geometry" />
        </mxCell>
        <mxCell id="jApik-LnolIBYXWf8Z4d-34" value="&lt;strong data-end=&quot;248&quot; data-start=&quot;223&quot;&gt;ОПЕРАТИВНА ЦІЛЬ D.2.2&lt;/strong&gt;&lt;div&gt;&lt;br&gt;&lt;/div&gt;&lt;div&gt;&lt;div&gt;Впровадити бонуси за повторні покупки&lt;/div&gt;&lt;/div&gt;" style="rounded=0;whiteSpace=wrap;html=1;" vertex="1" parent="1">
          <mxGeometry x="1942.5" y="1332" width="220" height="100" as="geometry" />
        </mxCell>
        <mxCell id="jApik-LnolIBYXWf8Z4d-35" value="" style="endArrow=classic;html=1;rounded=0;" edge="1" parent="1" source="jApik-LnolIBYXWf8Z4d-30" target="jApik-LnolIBYXWf8Z4d-31">
          <mxGeometry width="50" height="50" relative="1" as="geometry">
            <mxPoint x="832.5" y="1232" as="sourcePoint" />
            <mxPoint x="1322.5" y="1332" as="targetPoint" />
            <Array as="points">
              <mxPoint x="1452.5" y="1282" />
              <mxPoint x="1322.5" y="1282" />
            </Array>
          </mxGeometry>
        </mxCell>
        <mxCell id="jApik-LnolIBYXWf8Z4d-36" value="" style="endArrow=classic;html=1;rounded=0;" edge="1" parent="1" source="jApik-LnolIBYXWf8Z4d-30" target="jApik-LnolIBYXWf8Z4d-32">
          <mxGeometry width="50" height="50" relative="1" as="geometry">
            <mxPoint x="1052.5" y="1282" as="sourcePoint" />
            <mxPoint x="1102.5" y="1232" as="targetPoint" />
            <Array as="points">
              <mxPoint x="1452.5" y="1282" />
              <mxPoint x="1572.5" y="1282" />
            </Array>
          </mxGeometry>
        </mxCell>
        <mxCell id="jApik-LnolIBYXWf8Z4d-37" value="" style="endArrow=classic;html=1;rounded=0;" edge="1" parent="1" source="jApik-LnolIBYXWf8Z4d-29" target="jApik-LnolIBYXWf8Z4d-33">
          <mxGeometry width="50" height="50" relative="1" as="geometry">
            <mxPoint x="1762.5" y="1312" as="sourcePoint" />
            <mxPoint x="1812.5" y="1262" as="targetPoint" />
            <Array as="points">
              <mxPoint x="1922.5" y="1292" />
              <mxPoint x="1812.5" y="1292" />
            </Array>
          </mxGeometry>
        </mxCell>
        <mxCell id="jApik-LnolIBYXWf8Z4d-38" value="" style="endArrow=classic;html=1;rounded=0;" edge="1" parent="1" source="jApik-LnolIBYXWf8Z4d-29" target="jApik-LnolIBYXWf8Z4d-34">
          <mxGeometry width="50" height="50" relative="1" as="geometry">
            <mxPoint x="1782.5" y="1312" as="sourcePoint" />
            <mxPoint x="1832.5" y="1262" as="targetPoint" />
            <Array as="points">
              <mxPoint x="1922.5" y="1292" />
              <mxPoint x="2052.5" y="1292" />
            </Array>
          </mxGeometry>
        </mxCell>
        <mxCell id="jApik-LnolIBYXWf8Z4d-39" style="rounded=0;orthogonalLoop=1;jettySize=auto;html=1;entryX=0.5;entryY=0;entryDx=0;entryDy=0;" edge="1" parent="1" target="jApik-LnolIBYXWf8Z4d-42" source="no3zrZCgEB3o4rFu9KWx-3">
          <mxGeometry relative="1" as="geometry">
            <mxPoint x="2265" y="143" as="sourcePoint" />
            <Array as="points">
              <mxPoint x="2272.5" y="210" />
              <mxPoint x="2030" y="210" />
            </Array>
          </mxGeometry>
        </mxCell>
        <mxCell id="jApik-LnolIBYXWf8Z4d-40" style="rounded=0;orthogonalLoop=1;jettySize=auto;html=1;" edge="1" parent="1" target="jApik-LnolIBYXWf8Z4d-41" source="no3zrZCgEB3o4rFu9KWx-3">
          <mxGeometry relative="1" as="geometry">
            <mxPoint x="2265" y="143" as="sourcePoint" />
            <Array as="points">
              <mxPoint x="2272.5" y="210" />
              <mxPoint x="2500" y="210" />
            </Array>
          </mxGeometry>
        </mxCell>
        <mxCell id="jApik-LnolIBYXWf8Z4d-41" value="&lt;div&gt;&lt;font style=&quot;font-size: 14px;&quot;&gt;&lt;b&gt;Стратегiчна цiль E.2&lt;/b&gt;&lt;/font&gt;&lt;/div&gt;&lt;div&gt;&lt;span style=&quot;font-size: 14px; background-color: transparent; color: light-dark(rgb(0, 0, 0), rgb(255, 255, 255));&quot;&gt;&lt;br&gt;&lt;/span&gt;&lt;/div&gt;&lt;div&gt;&lt;span style=&quot;font-size: 14px;&quot;&gt;Зменшити втрати та помилки у доставці&lt;/span&gt;&lt;/div&gt;" style="rounded=0;whiteSpace=wrap;html=1;" vertex="1" parent="1">
          <mxGeometry x="2390" y="280" width="220" height="100" as="geometry" />
        </mxCell>
        <mxCell id="jApik-LnolIBYXWf8Z4d-42" value="&lt;div&gt;&lt;font style=&quot;font-size: 14px;&quot;&gt;&lt;b&gt;Стратегiчна цiль E.1&lt;/b&gt;&lt;/font&gt;&lt;/div&gt;&lt;div&gt;&lt;span style=&quot;font-size: 14px; background-color: transparent; color: light-dark(rgb(0, 0, 0), rgb(255, 255, 255));&quot;&gt;&lt;br&gt;&lt;/span&gt;&lt;/div&gt;&lt;div&gt;&lt;span style=&quot;font-size: 14px;&quot;&gt;Підвищити стабільність логістики&lt;/span&gt;&lt;/div&gt;" style="rounded=0;whiteSpace=wrap;html=1;" vertex="1" parent="1">
          <mxGeometry x="1920" y="280" width="220" height="100" as="geometry" />
        </mxCell>
        <mxCell id="jApik-LnolIBYXWf8Z4d-43" value="&lt;strong data-end=&quot;73&quot; data-start=&quot;48&quot;&gt;ОПЕРАТИВНА ЦІЛЬ E.1.1&lt;/strong&gt;&lt;div&gt;&lt;br&gt;&lt;/div&gt;&lt;div&gt;&lt;div&gt;Укласти договори з 2+ перевізниками&lt;/div&gt;&lt;/div&gt;" style="rounded=0;whiteSpace=wrap;html=1;" vertex="1" parent="1">
          <mxGeometry x="1790" y="480" width="220" height="100" as="geometry" />
        </mxCell>
        <mxCell id="jApik-LnolIBYXWf8Z4d-44" value="&lt;strong data-end=&quot;231&quot; data-start=&quot;206&quot;&gt;ОПЕРАТИВНА ЦІЛЬ E.1.2&lt;/strong&gt;&lt;div&gt;&lt;br&gt;&lt;/div&gt;&lt;div&gt;&lt;div&gt;&lt;span style=&quot;background-color: transparent; color: light-dark(rgb(0, 0, 0), rgb(255, 255, 255));&quot;&gt;Налаштувати контроль строків доставки&lt;/span&gt;&lt;/div&gt;&lt;/div&gt;" style="rounded=0;whiteSpace=wrap;html=1;" vertex="1" parent="1">
          <mxGeometry x="2040" y="480" width="220" height="100" as="geometry" />
        </mxCell>
        <mxCell id="jApik-LnolIBYXWf8Z4d-45" value="&lt;strong data-end=&quot;73&quot; data-start=&quot;48&quot;&gt;ОПЕРАТИВНА ЦІЛЬ E.2.1&lt;/strong&gt;&lt;div&gt;&lt;br&gt;&lt;/div&gt;&lt;div&gt;&lt;div&gt;Запровадити контроль упаковки&lt;/div&gt;&lt;/div&gt;" style="rounded=0;whiteSpace=wrap;html=1;" vertex="1" parent="1">
          <mxGeometry x="2280" y="480" width="220" height="100" as="geometry" />
        </mxCell>
        <mxCell id="jApik-LnolIBYXWf8Z4d-46" value="&lt;strong data-end=&quot;248&quot; data-start=&quot;223&quot;&gt;ОПЕРАТИВНА ЦІЛЬ E.2.2&lt;/strong&gt;&lt;div&gt;&lt;span style=&quot;background-color: transparent;&quot;&gt;&lt;br&gt;&lt;/span&gt;&lt;/div&gt;&lt;div&gt;&lt;div&gt;&lt;span style=&quot;background-color: transparent; color: light-dark(rgb(0, 0, 0), rgb(255, 255, 255));&quot;&gt;Верифікація адреси клієнта&lt;/span&gt;&lt;/div&gt;&lt;/div&gt;" style="rounded=0;whiteSpace=wrap;html=1;" vertex="1" parent="1">
          <mxGeometry x="2520" y="480" width="220" height="100" as="geometry" />
        </mxCell>
        <mxCell id="jApik-LnolIBYXWf8Z4d-47" value="" style="endArrow=classic;html=1;rounded=0;" edge="1" parent="1" source="jApik-LnolIBYXWf8Z4d-42" target="jApik-LnolIBYXWf8Z4d-43">
          <mxGeometry width="50" height="50" relative="1" as="geometry">
            <mxPoint x="1410" y="380" as="sourcePoint" />
            <mxPoint x="1900" y="480" as="targetPoint" />
            <Array as="points">
              <mxPoint x="2030" y="430" />
              <mxPoint x="1900" y="430" />
            </Array>
          </mxGeometry>
        </mxCell>
        <mxCell id="jApik-LnolIBYXWf8Z4d-48" value="" style="endArrow=classic;html=1;rounded=0;" edge="1" parent="1" source="jApik-LnolIBYXWf8Z4d-42" target="jApik-LnolIBYXWf8Z4d-44">
          <mxGeometry width="50" height="50" relative="1" as="geometry">
            <mxPoint x="1630" y="430" as="sourcePoint" />
            <mxPoint x="1680" y="380" as="targetPoint" />
            <Array as="points">
              <mxPoint x="2030" y="430" />
              <mxPoint x="2150" y="430" />
            </Array>
          </mxGeometry>
        </mxCell>
        <mxCell id="jApik-LnolIBYXWf8Z4d-49" value="" style="endArrow=classic;html=1;rounded=0;" edge="1" parent="1" source="jApik-LnolIBYXWf8Z4d-41" target="jApik-LnolIBYXWf8Z4d-45">
          <mxGeometry width="50" height="50" relative="1" as="geometry">
            <mxPoint x="2340" y="460" as="sourcePoint" />
            <mxPoint x="2390" y="410" as="targetPoint" />
            <Array as="points">
              <mxPoint x="2500" y="440" />
              <mxPoint x="2390" y="440" />
            </Array>
          </mxGeometry>
        </mxCell>
        <mxCell id="jApik-LnolIBYXWf8Z4d-50" value="" style="endArrow=classic;html=1;rounded=0;" edge="1" parent="1" source="jApik-LnolIBYXWf8Z4d-41" target="jApik-LnolIBYXWf8Z4d-46">
          <mxGeometry width="50" height="50" relative="1" as="geometry">
            <mxPoint x="2360" y="460" as="sourcePoint" />
            <mxPoint x="2410" y="410" as="targetPoint" />
            <Array as="points">
              <mxPoint x="2500" y="440" />
              <mxPoint x="2630" y="440" />
            </Array>
          </mxGeometry>
        </mxCell>
      </root>
    </mxGraphModel>
  </diagram>
  <diagram id="ShsvLvpPDKyG4VmC-lvO" name="Страница — 3">
    <mxGraphModel grid="1" page="1" gridSize="10" guides="1" tooltips="1" connect="1" arrows="1" fold="1" pageScale="1" pageWidth="4000" pageHeight="4000" math="0" shadow="0">
      <root>
        <mxCell id="0" />
        <mxCell id="1" parent="0" />
        <mxCell id="dmXDiLQNQ9Ko5y4I309b-1" value="Я ВЛАД" style="shape=umlActor;verticalLabelPosition=bottom;verticalAlign=top;html=1;outlineConnect=0;fillColor=#dae8fc;strokeColor=#6c8ebf;" vertex="1" parent="1">
          <mxGeometry x="170" y="630" width="65" height="130" as="geometry" />
        </mxCell>
        <mxCell id="dmXDiLQNQ9Ko5y4I309b-2" value="Я САНЯ" style="shape=umlActor;verticalLabelPosition=bottom;verticalAlign=top;html=1;outlineConnect=0;" vertex="1" parent="1">
          <mxGeometry x="30" y="630" width="65" height="130" as="geometry" />
        </mxCell>
        <mxCell id="dmXDiLQNQ9Ko5y4I309b-3" value="" style="verticalLabelPosition=bottom;verticalAlign=top;html=1;shape=mxgraph.basic.polygon;polyCoords=[[0.25,0],[0.75,0],[1,0.25],[1,0.75],[0.75,1],[0.25,1],[0,0.75],[0,0.25]];polyline=0;" vertex="1" parent="1">
          <mxGeometry x="49" y="640" width="10" height="10" as="geometry" />
        </mxCell>
        <mxCell id="dmXDiLQNQ9Ko5y4I309b-4" value="" style="verticalLabelPosition=bottom;verticalAlign=top;html=1;shape=mxgraph.basic.polygon;polyCoords=[[0.25,0],[0.75,0],[1,0.25],[1,0.75],[0.75,1],[0.25,1],[0,0.75],[0,0.25]];polyline=0;" vertex="1" parent="1">
          <mxGeometry x="66" y="640" width="10" height="10" as="geometry" />
        </mxCell>
        <mxCell id="dmXDiLQNQ9Ko5y4I309b-5" value="" style="endArrow=none;html=1;rounded=0;exitX=1.042;exitY=0.499;exitDx=0;exitDy=0;exitPerimeter=0;" edge="1" parent="1" source="dmXDiLQNQ9Ko5y4I309b-3">
          <mxGeometry width="50" height="50" relative="1" as="geometry">
            <mxPoint x="60" y="645" as="sourcePoint" />
            <mxPoint x="66" y="645.0799999999999" as="targetPoint" />
          </mxGeometry>
        </mxCell>
        <mxCell id="dmXDiLQNQ9Ko5y4I309b-6" value="" style="shape=xor;whiteSpace=wrap;html=1;rotation=90;" vertex="1" parent="1">
          <mxGeometry x="59.5" y="650" width="6" height="10" as="geometry" />
        </mxCell>
        <mxCell id="y473mMzPhfpCXTB5HobV-1" value="" style="verticalLabelPosition=bottom;verticalAlign=top;html=1;shape=mxgraph.basic.cone2;dx=0.5;dy=0.9;" vertex="1" parent="1">
          <mxGeometry x="49" y="590" width="27" height="50" as="geometry" />
        </mxCell>
        <mxCell id="4Qw92zNIm9LH4HpnBoHF-1" style="rounded=0;orthogonalLoop=1;jettySize=auto;html=1;entryX=0.5;entryY=0;entryDx=0;entryDy=0;" edge="1" parent="1" source="4Qw92zNIm9LH4HpnBoHF-4">
          <mxGeometry relative="1" as="geometry">
            <mxPoint x="140" y="450" as="targetPoint" />
          </mxGeometry>
        </mxCell>
        <mxCell id="4Qw92zNIm9LH4HpnBoHF-2" style="rounded=0;orthogonalLoop=1;jettySize=auto;html=1;" edge="1" parent="1" source="4Qw92zNIm9LH4HpnBoHF-4" target="4Qw92zNIm9LH4HpnBoHF-18">
          <mxGeometry relative="1" as="geometry" />
        </mxCell>
        <mxCell id="4Qw92zNIm9LH4HpnBoHF-3" style="rounded=0;orthogonalLoop=1;jettySize=auto;html=1;entryX=0.5;entryY=0;entryDx=0;entryDy=0;" edge="1" parent="1" source="4Qw92zNIm9LH4HpnBoHF-4" target="4Qw92zNIm9LH4HpnBoHF-17">
          <mxGeometry relative="1" as="geometry" />
        </mxCell>
        <mxCell id="4Qw92zNIm9LH4HpnBoHF-4" value="&lt;font style=&quot;font-size: 14px;&quot;&gt;&lt;b&gt;Стратегiчний&lt;br&gt;напрям А &lt;/b&gt;-&amp;nbsp;&lt;/font&gt;&lt;div&gt;&lt;font size=&quot;3&quot;&gt;розвиток та підтримка високої професійної кваліфікації працівників&lt;/font&gt;&lt;/div&gt;" style="rounded=0;whiteSpace=wrap;html=1;fillColor=#dae8fc;strokeColor=#6c8ebf;fontStyle=0" vertex="1" parent="1">
          <mxGeometry x="250" y="170" width="240" height="140" as="geometry" />
        </mxCell>
        <mxCell id="4Qw92zNIm9LH4HpnBoHF-5" style="edgeStyle=orthogonalEdgeStyle;rounded=0;orthogonalLoop=1;jettySize=auto;html=1;" edge="1" parent="1" source="4Qw92zNIm9LH4HpnBoHF-8" target="4Qw92zNIm9LH4HpnBoHF-4">
          <mxGeometry relative="1" as="geometry" />
        </mxCell>
        <mxCell id="4Qw92zNIm9LH4HpnBoHF-6" style="edgeStyle=orthogonalEdgeStyle;rounded=0;orthogonalLoop=1;jettySize=auto;html=1;" edge="1" parent="1" source="4Qw92zNIm9LH4HpnBoHF-8" target="4Qw92zNIm9LH4HpnBoHF-12">
          <mxGeometry relative="1" as="geometry" />
        </mxCell>
        <mxCell id="4Qw92zNIm9LH4HpnBoHF-7" style="edgeStyle=orthogonalEdgeStyle;rounded=0;orthogonalLoop=1;jettySize=auto;html=1;" edge="1" parent="1" source="4Qw92zNIm9LH4HpnBoHF-8" target="4Qw92zNIm9LH4HpnBoHF-16">
          <mxGeometry relative="1" as="geometry" />
        </mxCell>
        <mxCell id="4Qw92zNIm9LH4HpnBoHF-8" value="&lt;font style=&quot;font-size: 20px;&quot;&gt;Стратегiчне бачення -&lt;br&gt;&lt;span style=&quot;font-weight: normal;&quot;&gt;Ми – компанія з бездоганною діловою репутацією, яка об&#39;єднує досвідчену та професійну команду розробників ПЗ.&lt;/span&gt;&lt;/font&gt;" style="rounded=0;whiteSpace=wrap;html=1;fontSize=22;fontStyle=1;strokeColor=#6c8ebf;fillColor=#dae8fc;" vertex="1" parent="1">
          <mxGeometry x="910" y="30" width="440" height="120" as="geometry" />
        </mxCell>
        <mxCell id="4Qw92zNIm9LH4HpnBoHF-9" style="rounded=0;orthogonalLoop=1;jettySize=auto;html=1;" edge="1" parent="1" source="4Qw92zNIm9LH4HpnBoHF-12" target="4Qw92zNIm9LH4HpnBoHF-19">
          <mxGeometry relative="1" as="geometry" />
        </mxCell>
        <mxCell id="4Qw92zNIm9LH4HpnBoHF-10" style="rounded=0;orthogonalLoop=1;jettySize=auto;html=1;entryX=0.5;entryY=0;entryDx=0;entryDy=0;" edge="1" parent="1" source="4Qw92zNIm9LH4HpnBoHF-12" target="4Qw92zNIm9LH4HpnBoHF-26">
          <mxGeometry relative="1" as="geometry" />
        </mxCell>
        <mxCell id="4Qw92zNIm9LH4HpnBoHF-11" style="rounded=0;orthogonalLoop=1;jettySize=auto;html=1;" edge="1" parent="1" source="4Qw92zNIm9LH4HpnBoHF-12" target="4Qw92zNIm9LH4HpnBoHF-20">
          <mxGeometry relative="1" as="geometry" />
        </mxCell>
        <mxCell id="4Qw92zNIm9LH4HpnBoHF-12" value="&lt;font style=&quot;font-size: 14px;&quot;&gt;&lt;b&gt;Стратегiчний напрям B&lt;/b&gt; -&amp;nbsp;&lt;/font&gt;&lt;div&gt;&lt;div&gt;&lt;font size=&quot;3&quot;&gt;впровадження ефективної та структурованої системи бізнес-процесів у компанії&lt;/font&gt;&lt;/div&gt;&lt;div&gt;&lt;br&gt;&lt;/div&gt;&lt;/div&gt;" style="rounded=0;whiteSpace=wrap;html=1;fillColor=#dae8fc;strokeColor=#6c8ebf;fontStyle=0" vertex="1" parent="1">
          <mxGeometry x="1010" y="180" width="240" height="120" as="geometry" />
        </mxCell>
        <mxCell id="4Qw92zNIm9LH4HpnBoHF-13" style="rounded=0;orthogonalLoop=1;jettySize=auto;html=1;" edge="1" parent="1" source="4Qw92zNIm9LH4HpnBoHF-16" target="4Qw92zNIm9LH4HpnBoHF-21">
          <mxGeometry relative="1" as="geometry" />
        </mxCell>
        <mxCell id="4Qw92zNIm9LH4HpnBoHF-14" style="rounded=0;orthogonalLoop=1;jettySize=auto;html=1;entryX=0.5;entryY=0;entryDx=0;entryDy=0;" edge="1" parent="1" source="4Qw92zNIm9LH4HpnBoHF-16">
          <mxGeometry relative="1" as="geometry">
            <mxPoint x="1630" y="450" as="targetPoint" />
          </mxGeometry>
        </mxCell>
        <mxCell id="4Qw92zNIm9LH4HpnBoHF-15" style="rounded=0;orthogonalLoop=1;jettySize=auto;html=1;entryX=0.5;entryY=0;entryDx=0;entryDy=0;" edge="1" parent="1" source="4Qw92zNIm9LH4HpnBoHF-16" target="4Qw92zNIm9LH4HpnBoHF-22">
          <mxGeometry relative="1" as="geometry" />
        </mxCell>
        <mxCell id="4Qw92zNIm9LH4HpnBoHF-16" value="&lt;font style=&quot;font-size: 14px;&quot;&gt;&lt;b&gt;Стратегiчний&lt;br&gt;напрям C&lt;/b&gt; -&amp;nbsp;&lt;/font&gt;&lt;div&gt;&lt;div&gt;&lt;font size=&quot;3&quot;&gt;формування дієвої системи мотивації та заохочення персоналу&lt;/font&gt;&lt;/div&gt;&lt;/div&gt;&lt;div&gt;&lt;font size=&quot;3&quot;&gt;&lt;br&gt;&lt;/font&gt;&lt;/div&gt;" style="rounded=0;whiteSpace=wrap;html=1;fillColor=#dae8fc;strokeColor=#6c8ebf;fontStyle=0" vertex="1" parent="1">
          <mxGeometry x="1772.5" y="160" width="235" height="180" as="geometry" />
        </mxCell>
        <mxCell id="4Qw92zNIm9LH4HpnBoHF-17" value="&lt;div&gt;&lt;div&gt;&lt;div&gt;&lt;font style=&quot;font-size: 14px;&quot;&gt;&lt;b&gt;Стратегiчна цiль A.3&lt;/b&gt;&amp;nbsp;-&amp;nbsp;&lt;/font&gt;&lt;/div&gt;&lt;font style=&quot;font-size: 14px;&quot;&gt;&lt;/font&gt;&lt;/div&gt;&lt;span style=&quot;font-size: 14px;&quot;&gt;&lt;/span&gt;&lt;/div&gt;&lt;span style=&quot;font-size: 14px;&quot;&gt;Створити систему внутрішнього наставництва для обміну знаннями між досвідченими та молодшими працівниками.&lt;/span&gt;" style="rounded=0;whiteSpace=wrap;html=1;" vertex="1" parent="1">
          <mxGeometry x="490" y="450" width="220" height="100" as="geometry" />
        </mxCell>
        <mxCell id="4Qw92zNIm9LH4HpnBoHF-18" value="&lt;div&gt;&lt;div&gt;&lt;div&gt;&lt;font style=&quot;font-size: 14px;&quot;&gt;&lt;b&gt;Стратегiчна цiль A.2&lt;/b&gt;&amp;nbsp;-&amp;nbsp;&lt;/font&gt;&lt;/div&gt;&lt;font style=&quot;font-size: 14px;&quot;&gt;&lt;/font&gt;&lt;/div&gt;&lt;span style=&quot;font-size: 14px;&quot;&gt;&lt;/span&gt;&lt;/div&gt;&lt;span style=&quot;font-size: 14px;&quot;&gt;Впровадити програми для підвищення кваліфікації в рамках безперервного навчання для персоналу компанії.&lt;/span&gt;" style="rounded=0;whiteSpace=wrap;html=1;" vertex="1" parent="1">
          <mxGeometry x="260" y="450" width="220" height="100" as="geometry" />
        </mxCell>
        <mxCell id="4Qw92zNIm9LH4HpnBoHF-19" value="&lt;div&gt;&lt;div&gt;&lt;font style=&quot;font-size: 14px;&quot;&gt;&lt;b&gt;Стратегiчна цiль B.2&lt;/b&gt;&amp;nbsp;-&amp;nbsp;&lt;/font&gt;&lt;/div&gt;&lt;font style=&quot;font-size: 14px;&quot;&gt;&lt;/font&gt;&lt;/div&gt;&lt;span style=&quot;font-size: 14px;&quot;&gt;Розробити та впровадити автоматизовані системи для моніторингу і керування проектами.&lt;/span&gt;" style="rounded=0;whiteSpace=wrap;html=1;" vertex="1" parent="1">
          <mxGeometry x="1020" y="450" width="220" height="100" as="geometry" />
        </mxCell>
        <mxCell id="4Qw92zNIm9LH4HpnBoHF-20" value="&lt;div&gt;&lt;div&gt;&lt;font style=&quot;font-size: 14px;&quot;&gt;&lt;b&gt;Стратегiчна цiль B.3&lt;/b&gt;&amp;nbsp;-&amp;nbsp;&lt;/font&gt;&lt;/div&gt;&lt;font style=&quot;font-size: 14px;&quot;&gt;&lt;/font&gt;&lt;/div&gt;&lt;div&gt;&lt;span style=&quot;font-size: 14px;&quot;&gt;Створити чітку внутрішню комунікаційну структуру для покращення взаємодії між відділами компанії.&lt;/span&gt;&lt;/div&gt;" style="rounded=0;whiteSpace=wrap;html=1;" vertex="1" parent="1">
          <mxGeometry x="1250" y="450" width="220" height="100" as="geometry" />
        </mxCell>
        <mxCell id="4Qw92zNIm9LH4HpnBoHF-21" value="&lt;div&gt;&lt;div&gt;&lt;div&gt;&lt;font style=&quot;font-size: 14px;&quot;&gt;&lt;b&gt;Стратегiчна цiль С.2&lt;/b&gt; -&amp;nbsp;&lt;/font&gt;&lt;/div&gt;&lt;font style=&quot;font-size: 14px;&quot;&gt;&lt;/font&gt;&lt;/div&gt;&lt;div&gt;&lt;span style=&quot;font-size: 14px;&quot;&gt;Впровадити регулярні опитування для визначення рівня задоволення співробітників умовами праці та можливостями для кар&#39;єрного росту.&lt;/span&gt;&lt;/div&gt;&lt;/div&gt;&lt;div&gt;&lt;br&gt;&lt;/div&gt;" style="rounded=0;whiteSpace=wrap;html=1;verticalAlign=middle;" vertex="1" parent="1">
          <mxGeometry x="1780" y="450" width="220" height="120" as="geometry" />
        </mxCell>
        <mxCell id="4Qw92zNIm9LH4HpnBoHF-22" value="&lt;div&gt;&lt;div&gt;&lt;div&gt;&lt;font style=&quot;font-size: 14px;&quot;&gt;&lt;b&gt;Стратегiчна цiль С.3&lt;/b&gt;&amp;nbsp;-&amp;nbsp;&lt;/font&gt;&lt;/div&gt;&lt;font style=&quot;font-size: 14px;&quot;&gt;&lt;/font&gt;&lt;/div&gt;&lt;/div&gt;&lt;span style=&quot;font-size: 14px;&quot;&gt;Створити програму лояльності для заохочення довгострокового співробітництва з компанією.&lt;/span&gt;" style="rounded=0;whiteSpace=wrap;html=1;" vertex="1" parent="1">
          <mxGeometry x="2040" y="450" width="220" height="120" as="geometry" />
        </mxCell>
        <mxCell id="4Qw92zNIm9LH4HpnBoHF-23" style="edgeStyle=orthogonalEdgeStyle;rounded=0;orthogonalLoop=1;jettySize=auto;html=1;" edge="1" parent="1" source="4Qw92zNIm9LH4HpnBoHF-24" target="4Qw92zNIm9LH4HpnBoHF-8">
          <mxGeometry relative="1" as="geometry" />
        </mxCell>
        <mxCell id="4Qw92zNIm9LH4HpnBoHF-24" value="&lt;font style=&quot;font-size: 20px;&quot;&gt;&lt;b style=&quot;&quot;&gt;Мiсiя-&amp;nbsp;&lt;/b&gt;Залишатися надійним і авторитетним постачальником високоякісного програмного забезпечення та зберігати лідерські позиції на ринку&lt;/font&gt;" style="rounded=0;whiteSpace=wrap;html=1;fillColor=#dae8fc;strokeColor=#6c8ebf;fontStyle=0" vertex="1" parent="1">
          <mxGeometry x="900" y="-210" width="460" height="160" as="geometry" />
        </mxCell>
        <mxCell id="4Qw92zNIm9LH4HpnBoHF-25" value="&lt;div&gt;&lt;font style=&quot;font-size: 14px;&quot;&gt;&lt;b&gt;Стратегiчна цiль С.1&lt;/b&gt;&lt;/font&gt;&lt;/div&gt;&lt;font style=&quot;font-size: 14px;&quot;&gt;Розробити систему гнучкого винагородження, яка враховує досягнення співробітників.&lt;/font&gt;" style="rounded=0;whiteSpace=wrap;html=1;" vertex="1" parent="1">
          <mxGeometry x="1530" y="450" width="220" height="120" as="geometry" />
        </mxCell>
        <mxCell id="4Qw92zNIm9LH4HpnBoHF-26" value="&lt;div&gt;&lt;font style=&quot;font-size: 14px;&quot;&gt;&lt;b&gt;Стратегiчна цiль B.1&lt;/b&gt;&amp;nbsp;-&amp;nbsp;&lt;font style=&quot;font-size: 14px;&quot;&gt;&lt;/font&gt;&lt;/font&gt;&lt;/div&gt;&lt;font style=&quot;font-size: 14px;&quot;&gt;Оптимізувати ключові бізнес-процеси для підвищення ефективності та зниження витрат.&lt;/font&gt;" style="rounded=0;whiteSpace=wrap;html=1;" vertex="1" parent="1">
          <mxGeometry x="790" y="450" width="220" height="100" as="geometry" />
        </mxCell>
        <mxCell id="4Qw92zNIm9LH4HpnBoHF-27" value="&lt;strong data-end=&quot;172&quot; data-start=&quot;147&quot;&gt;ОПЕРАТИВНА ЦІЛЬ B.1.1&lt;/strong&gt; — Провести аудит поточних бізнес-процесів компанії для виявлення неефективних етапів та можливостей для автоматизації впродовж наступних 3 місяців." style="rounded=0;whiteSpace=wrap;html=1;" vertex="1" parent="1">
          <mxGeometry x="790" y="570" width="220" height="100" as="geometry" />
        </mxCell>
        <mxCell id="4Qw92zNIm9LH4HpnBoHF-28" value="&lt;strong data-end=&quot;347&quot; data-start=&quot;322&quot;&gt;ОПЕРАТИВНА ЦІЛЬ B.1.2&lt;/strong&gt; — Впровадити систему управління бізнес-процесами (BPM) для автоматизації ключових процесів до кінця поточного фінансового року." style="rounded=0;whiteSpace=wrap;html=1;" vertex="1" parent="1">
          <mxGeometry x="790" y="690" width="220" height="100" as="geometry" />
        </mxCell>
        <mxCell id="4Qw92zNIm9LH4HpnBoHF-29" value="&lt;strong data-end=&quot;73&quot; data-start=&quot;48&quot;&gt;ОПЕРАТИВНА ЦІЛЬ B.2.1&lt;/strong&gt; — Провести аналіз існуючих інструментів управління проектами та вимог до автоматизації для визначення найбільш підходящих рішень протягом наступних 2 місяців." style="rounded=0;whiteSpace=wrap;html=1;" vertex="1" parent="1">
          <mxGeometry x="1020" y="570" width="220" height="100" as="geometry" />
        </mxCell>
        <mxCell id="4Qw92zNIm9LH4HpnBoHF-30" value="&lt;strong data-end=&quot;259&quot; data-start=&quot;234&quot;&gt;ОПЕРАТИВНА ЦІЛЬ B.2.2&lt;/strong&gt; — Розробити план впровадження автоматизованої системи для моніторингу проектів, включаючи інтеграцію з існуючими робочими процесами, до кінця кварталу." style="rounded=0;whiteSpace=wrap;html=1;" vertex="1" parent="1">
          <mxGeometry x="1020" y="690" width="220" height="100" as="geometry" />
        </mxCell>
        <mxCell id="4Qw92zNIm9LH4HpnBoHF-31" value="&lt;strong data-end=&quot;438&quot; data-start=&quot;413&quot;&gt;ОПЕРАТИВНА ЦІЛЬ B.2.3&lt;/strong&gt; — Запустити пілотний проект з автоматизації моніторингу та керування проектами в одній з команд для оцінки ефективності та виправлення можливих недоліків протягом наступних 3 місяців." style="rounded=0;whiteSpace=wrap;html=1;" vertex="1" parent="1">
          <mxGeometry x="1020" y="810" width="220" height="100" as="geometry" />
        </mxCell>
        <mxCell id="4Qw92zNIm9LH4HpnBoHF-32" value="&lt;strong data-end=&quot;73&quot; data-start=&quot;48&quot;&gt;ОПЕРАТИВНА ЦІЛЬ B.3.1&lt;/strong&gt; — Проаналізувати поточні канали та методи внутрішньої комунікації між відділами компанії для виявлення недоліків та можливих поліпшень протягом 2 місяців." style="rounded=0;whiteSpace=wrap;html=1;" vertex="1" parent="1">
          <mxGeometry x="1250" y="570" width="220" height="100" as="geometry" />
        </mxCell>
        <mxCell id="4Qw92zNIm9LH4HpnBoHF-33" value="&lt;strong data-end=&quot;255&quot; data-start=&quot;230&quot;&gt;ОПЕРАТИВНА ЦІЛЬ B.3.2&lt;/strong&gt; — Розробити план для впровадження єдиної внутрішньої комунікаційної платформи (наприклад, Slack, Microsoft Teams) для всіх відділів компанії до кінця кварталу." style="rounded=0;whiteSpace=wrap;html=1;" vertex="1" parent="1">
          <mxGeometry x="1250" y="690" width="220" height="100" as="geometry" />
        </mxCell>
        <mxCell id="4Qw92zNIm9LH4HpnBoHF-34" value="&lt;strong data-end=&quot;442&quot; data-start=&quot;417&quot;&gt;ОПЕРАТИВНА ЦІЛЬ B.3.3&lt;/strong&gt; — Проводити регулярні тренінги для співробітників щодо використання нової комунікаційної платформи та правил ефективної взаємодії між відділами впродовж 3 місяців після впровадження." style="rounded=0;whiteSpace=wrap;html=1;" vertex="1" parent="1">
          <mxGeometry x="1250" y="810" width="220" height="100" as="geometry" />
        </mxCell>
        <mxCell id="4Qw92zNIm9LH4HpnBoHF-35" value="&lt;strong data-end=&quot;649&quot; data-start=&quot;624&quot;&gt;ОПЕРАТИВНА ЦІЛЬ B.2.4&lt;/strong&gt; — Впровадити автоматизовану систему для всіх проектів компанії та забезпечити навчання команди з використання нового інструменту протягом 6 місяців." style="rounded=0;whiteSpace=wrap;html=1;" vertex="1" parent="1">
          <mxGeometry x="1020" y="930" width="220" height="100" as="geometry" />
        </mxCell>
        <mxCell id="4Qw92zNIm9LH4HpnBoHF-36" value="&lt;strong data-end=&quot;652&quot; data-start=&quot;627&quot;&gt;ОПЕРАТИВНА ЦІЛЬ B.3.4&lt;/strong&gt; — Створити чітку структуру для регулярних зустрічей між відділами (наприклад, щотижневі наради для обговорення проектів та проблем) та забезпечити їхнє впровадження протягом наступних 2 місяців." style="rounded=0;whiteSpace=wrap;html=1;" vertex="1" parent="1">
          <mxGeometry x="1250" y="930" width="220" height="100" as="geometry" />
        </mxCell>
        <mxCell id="4Qw92zNIm9LH4HpnBoHF-37" value="&lt;strong data-end=&quot;874&quot; data-start=&quot;849&quot;&gt;ОПЕРАТИВНА ЦІЛЬ B.3.5&lt;/strong&gt; — Розробити та впровадити стандарти для внутрішніх звітів та комунікацій (наприклад, шаблони звітів, чіткі критерії для надання зворотного зв&#39;язку) протягом 4 місяців." style="rounded=0;whiteSpace=wrap;html=1;" vertex="1" parent="1">
          <mxGeometry x="1250" y="1050" width="220" height="100" as="geometry" />
        </mxCell>
        <mxCell id="4Qw92zNIm9LH4HpnBoHF-38" value="&lt;strong data-end=&quot;73&quot; data-start=&quot;48&quot;&gt;ОПЕРАТИВНА ЦІЛЬ A.2.1&lt;/strong&gt; — Проаналізувати потреби компанії в підвищенні кваліфікації співробітників та визначити ключові напрямки для навчання (наприклад, нові технології, управлінські навички, комунікації) протягом наступних 2 місяців." style="rounded=0;whiteSpace=wrap;html=1;" vertex="1" parent="1">
          <mxGeometry x="260" y="570" width="220" height="100" as="geometry" />
        </mxCell>
        <mxCell id="4Qw92zNIm9LH4HpnBoHF-39" value="&lt;div&gt;&lt;div&gt;&lt;div&gt;&lt;font style=&quot;font-size: 14px;&quot;&gt;&lt;b&gt;Стратегiчна цiль A.1&lt;/b&gt;&amp;nbsp;-&amp;nbsp;&lt;/font&gt;&lt;/div&gt;&lt;font style=&quot;font-size: 14px;&quot;&gt;&lt;/font&gt;&lt;/div&gt;&lt;/div&gt;&lt;span style=&quot;font-size: 14px;&quot;&gt;Створити систему внутрішнього наставництва для обміну знаннями між досвідченими та молодшими працівниками.&lt;/span&gt;" style="rounded=0;whiteSpace=wrap;html=1;" vertex="1" parent="1">
          <mxGeometry x="490" y="570" width="220" height="100" as="geometry" />
        </mxCell>
        <mxCell id="4Qw92zNIm9LH4HpnBoHF-40" value="&lt;strong data-end=&quot;312&quot; data-start=&quot;287&quot;&gt;ОПЕРАТИВНА ЦІЛЬ A.2.2&lt;/strong&gt; — Розробити програму безперервного навчання, яка включатиме регулярні тренінги, онлайн-курси, семінари та інші форми навчання для всіх рівнів персоналу протягом 3 місяців." style="rounded=0;whiteSpace=wrap;html=1;" vertex="1" parent="1">
          <mxGeometry x="260" y="690" width="220" height="100" as="geometry" />
        </mxCell>
        <mxCell id="4Qw92zNIm9LH4HpnBoHF-41" value="&lt;div&gt;&lt;div&gt;&lt;div&gt;&lt;font style=&quot;font-size: 14px;&quot;&gt;&lt;b&gt;Стратегiчна цiль A.1&lt;/b&gt;&amp;nbsp;-&amp;nbsp;&lt;/font&gt;&lt;/div&gt;&lt;font style=&quot;font-size: 14px;&quot;&gt;&lt;/font&gt;&lt;/div&gt;&lt;/div&gt;&lt;span style=&quot;font-size: 14px;&quot;&gt;Створити систему внутрішнього наставництва для обміну знаннями між досвідченими та молодшими працівниками.&lt;/span&gt;" style="rounded=0;whiteSpace=wrap;html=1;" vertex="1" parent="1">
          <mxGeometry x="490" y="690" width="220" height="100" as="geometry" />
        </mxCell>
        <mxCell id="4Qw92zNIm9LH4HpnBoHF-42" value="&lt;strong data-end=&quot;511&quot; data-start=&quot;486&quot;&gt;ОПЕРАТИВНА ЦІЛЬ A.2.3&lt;/strong&gt; — Впровадити платформу для онлайн-навчання та ресурсів, де працівники можуть проходити курси, отримувати сертифікати та взаємодіяти з іншими учасниками навчання, до кінця поточного кварталу." style="rounded=0;whiteSpace=wrap;html=1;" vertex="1" parent="1">
          <mxGeometry x="260" y="810" width="220" height="100" as="geometry" />
        </mxCell>
        <mxCell id="4Qw92zNIm9LH4HpnBoHF-43" value="&lt;div&gt;&lt;div&gt;&lt;div&gt;&lt;font style=&quot;font-size: 14px;&quot;&gt;&lt;b&gt;Стратегiчна цiль A.1&lt;/b&gt;&amp;nbsp;-&amp;nbsp;&lt;/font&gt;&lt;/div&gt;&lt;font style=&quot;font-size: 14px;&quot;&gt;&lt;/font&gt;&lt;/div&gt;&lt;/div&gt;&lt;span style=&quot;font-size: 14px;&quot;&gt;Створити систему внутрішнього наставництва для обміну знаннями між досвідченими та молодшими працівниками.&lt;/span&gt;" style="rounded=0;whiteSpace=wrap;html=1;" vertex="1" parent="1">
          <mxGeometry x="490" y="810" width="220" height="100" as="geometry" />
        </mxCell>
        <mxCell id="4Qw92zNIm9LH4HpnBoHF-44" value="&lt;strong data-end=&quot;729&quot; data-start=&quot;704&quot;&gt;ОПЕРАТИВНА ЦІЛЬ A.2.4&lt;/strong&gt; — Організувати перші навчальні сесії для співробітників за визначеними програмами підвищення кваліфікації, забезпечивши участь не менше 60% персоналу протягом наступних 4 місяців." style="rounded=0;whiteSpace=wrap;html=1;" vertex="1" parent="1">
          <mxGeometry x="260" y="930" width="220" height="100" as="geometry" />
        </mxCell>
        <mxCell id="4Qw92zNIm9LH4HpnBoHF-45" value="&lt;strong data-end=&quot;936&quot; data-start=&quot;911&quot;&gt;ОПЕРАТИВНА ЦІЛЬ A.2.5&lt;/strong&gt; — Встановити систему моніторингу та оцінки ефективності програм навчання, щоб аналізувати рівень засвоєння матеріалу та вплив на продуктивність працівників протягом 6 місяців." style="rounded=0;whiteSpace=wrap;html=1;" vertex="1" parent="1">
          <mxGeometry x="260" y="1050" width="220" height="100" as="geometry" />
        </mxCell>
        <mxCell id="4Qw92zNIm9LH4HpnBoHF-46" value="&lt;strong data-end=&quot;1139&quot; data-start=&quot;1114&quot;&gt;ОПЕРАТИВНА ЦІЛЬ A.2.6&lt;/strong&gt; — Оцінити відгуки учасників програм навчання, виявити потреби в коригуванні програм та впровадити зміни для поліпшення ефективності навчання впродовж наступних 2 місяців." style="rounded=0;whiteSpace=wrap;html=1;" vertex="1" parent="1">
          <mxGeometry x="260" y="1170" width="220" height="100" as="geometry" />
        </mxCell>
        <mxCell id="4Qw92zNIm9LH4HpnBoHF-47" value="&lt;strong data-end=&quot;73&quot; data-start=&quot;48&quot;&gt;ОПЕРАТИВНА ЦІЛЬ C.1.1&lt;/strong&gt; — Проаналізувати існуючу систему мотивації та винагородження в компанії для визначення її сильних сторін та недоліків, а також для розуміння потреб працівників щодо гнучкого винагородження, протягом наступних 2 місяців." style="rounded=0;whiteSpace=wrap;html=1;" vertex="1" parent="1">
          <mxGeometry x="1530" y="590" width="220" height="100" as="geometry" />
        </mxCell>
        <mxCell id="4Qw92zNIm9LH4HpnBoHF-48" value="&lt;strong data-end=&quot;73&quot; data-start=&quot;48&quot;&gt;ОПЕРАТИВНА ЦІЛЬ C.2.1&lt;/strong&gt; — Розробити анкету для регулярних опитувань співробітників, яка включатиме питання щодо умов праці, рівня задоволення, можливостей для кар&#39;єрного росту та загальної атмосфери в колективі, протягом 1 місяця." style="rounded=0;whiteSpace=wrap;html=1;" vertex="1" parent="1">
          <mxGeometry x="1780" y="590" width="220" height="100" as="geometry" />
        </mxCell>
        <mxCell id="4Qw92zNIm9LH4HpnBoHF-49" value="&lt;strong data-end=&quot;73&quot; data-start=&quot;48&quot;&gt;ОПЕРАТИВНА ЦІЛЬ B.3.1&lt;/strong&gt; — Проаналізувати поточні канали та методи внутрішньої комунікації між відділами компанії для виявлення недоліків та можливих поліпшень протягом 2 місяців." style="rounded=0;whiteSpace=wrap;html=1;" vertex="1" parent="1">
          <mxGeometry x="2040" y="590" width="220" height="100" as="geometry" />
        </mxCell>
        <mxCell id="4Qw92zNIm9LH4HpnBoHF-50" value="&lt;strong data-end=&quot;320&quot; data-start=&quot;295&quot;&gt;ОПЕРАТИВНА ЦІЛЬ C.1.2&lt;/strong&gt; — Розробити концепцію гнучкої системи винагородження, яка включатиме варіативність бонусів, премій, додаткових пільг та гнучких умов роботи в залежності від досягнень співробітників, протягом 3 місяців." style="rounded=0;whiteSpace=wrap;html=1;" vertex="1" parent="1">
          <mxGeometry x="1530" y="710" width="220" height="100" as="geometry" />
        </mxCell>
        <mxCell id="4Qw92zNIm9LH4HpnBoHF-51" value="&lt;strong data-end=&quot;307&quot; data-start=&quot;282&quot;&gt;ОПЕРАТИВНА ЦІЛЬ C.2.2&lt;/strong&gt; — Вибрати та впровадити онлайн-платформу або інструмент для збору та аналізу відповідей співробітників, що дозволить автоматизувати процес проведення опитувань, до кінця наступного місяця." style="rounded=0;whiteSpace=wrap;html=1;" vertex="1" parent="1">
          <mxGeometry x="1780" y="710" width="220" height="100" as="geometry" />
        </mxCell>
        <mxCell id="4Qw92zNIm9LH4HpnBoHF-52" value="&lt;strong data-end=&quot;73&quot; data-start=&quot;48&quot;&gt;ОПЕРАТИВНА ЦІЛЬ B.3.1&lt;/strong&gt; — Проаналізувати поточні канали та методи внутрішньої комунікації між відділами компанії для виявлення недоліків та можливих поліпшень протягом 2 місяців." style="rounded=0;whiteSpace=wrap;html=1;" vertex="1" parent="1">
          <mxGeometry x="2040" y="710" width="220" height="100" as="geometry" />
        </mxCell>
        <mxCell id="4Qw92zNIm9LH4HpnBoHF-53" value="&lt;strong data-end=&quot;550&quot; data-start=&quot;525&quot;&gt;ОПЕРАТИВНА ЦІЛЬ C.1.3&lt;/strong&gt; — Визначити критерії оцінки досягнень співробітників для забезпечення справедливості та прозорості процесу винагородження, а також запровадити систему моніторингу результатів їх роботи, до кінця поточного кварталу." style="rounded=0;whiteSpace=wrap;html=1;" vertex="1" parent="1">
          <mxGeometry x="1530" y="830" width="220" height="100" as="geometry" />
        </mxCell>
        <mxCell id="4Qw92zNIm9LH4HpnBoHF-54" value="&lt;strong data-end=&quot;73&quot; data-start=&quot;48&quot;&gt;ОПЕРАТИВНА ЦІЛЬ B.2.1&lt;/strong&gt; — Провести аналіз існуючих інструментів управління проектами та вимог до автоматизації для визначення найбільш підходящих рішень протягом наступних 2 місяців." style="rounded=0;whiteSpace=wrap;html=1;" vertex="1" parent="1">
          <mxGeometry x="1780" y="830" width="220" height="100" as="geometry" />
        </mxCell>
        <mxCell id="4Qw92zNIm9LH4HpnBoHF-55" value="&lt;strong data-end=&quot;73&quot; data-start=&quot;48&quot;&gt;ОПЕРАТИВНА ЦІЛЬ B.3.1&lt;/strong&gt; — Проаналізувати поточні канали та методи внутрішньої комунікації між відділами компанії для виявлення недоліків та можливих поліпшень протягом 2 місяців." style="rounded=0;whiteSpace=wrap;html=1;" vertex="1" parent="1">
          <mxGeometry x="2040" y="830" width="220" height="100" as="geometry" />
        </mxCell>
        <mxCell id="4Qw92zNIm9LH4HpnBoHF-56" value="&lt;strong data-end=&quot;792&quot; data-start=&quot;767&quot;&gt;ОПЕРАТИВНА ЦІЛЬ C.1.4&lt;/strong&gt; — Запустити пілотний проект гнучкої системи винагородження в одній з команд для оцінки її ефективності та збору відгуків співробітників протягом наступних 4 місяців." style="rounded=0;whiteSpace=wrap;html=1;" vertex="1" parent="1">
          <mxGeometry x="1530" y="950" width="220" height="100" as="geometry" />
        </mxCell>
        <mxCell id="4Qw92zNIm9LH4HpnBoHF-57" value="&lt;strong data-end=&quot;73&quot; data-start=&quot;48&quot;&gt;ОПЕРАТИВНА ЦІЛЬ B.2.1&lt;/strong&gt; — Провести аналіз існуючих інструментів управління проектами та вимог до автоматизації для визначення найбільш підходящих рішень протягом наступних 2 місяців." style="rounded=0;whiteSpace=wrap;html=1;" vertex="1" parent="1">
          <mxGeometry x="1780" y="950" width="220" height="100" as="geometry" />
        </mxCell>
        <mxCell id="4Qw92zNIm9LH4HpnBoHF-58" value="&lt;strong data-end=&quot;73&quot; data-start=&quot;48&quot;&gt;ОПЕРАТИВНА ЦІЛЬ B.3.1&lt;/strong&gt; — Проаналізувати поточні канали та методи внутрішньої комунікації між відділами компанії для виявлення недоліків та можливих поліпшень протягом 2 місяців." style="rounded=0;whiteSpace=wrap;html=1;" vertex="1" parent="1">
          <mxGeometry x="2040" y="950" width="220" height="100" as="geometry" />
        </mxCell>
        <mxCell id="4Qw92zNIm9LH4HpnBoHF-59" value="&lt;strong data-end=&quot;985&quot; data-start=&quot;960&quot;&gt;ОПЕРАТИВНА ЦІЛЬ C.1.5&lt;/strong&gt; — Оцінити відгуки учасників пілотного проекту, внести необхідні корективи в систему винагородження та впровадити її на всіх рівнях компанії протягом наступних 2 місяців." style="rounded=0;whiteSpace=wrap;html=1;" vertex="1" parent="1">
          <mxGeometry x="1530" y="1070" width="220" height="100" as="geometry" />
        </mxCell>
        <mxCell id="GVYkdojZ147YRttXmH7M-2" value="" style="shape=waypoint;sketch=0;fillStyle=solid;size=6;pointerEvents=1;points=[];fillColor=none;resizable=0;rotatable=0;perimeter=centerPerimeter;snapToPoint=1;" vertex="1" parent="1">
          <mxGeometry x="56" y="635" width="20" height="20" as="geometry" />
        </mxCell>
        <mxCell id="GVYkdojZ147YRttXmH7M-3" value="" style="shape=waypoint;sketch=0;fillStyle=solid;size=6;pointerEvents=1;points=[];fillColor=none;resizable=0;rotatable=0;perimeter=centerPerimeter;snapToPoint=1;" vertex="1" parent="1">
          <mxGeometry x="45.5" y="635" width="20" height="20" as="geometry" />
        </mxCell>
        <mxCell id="GVYkdojZ147YRttXmH7M-5" value="" style="endArrow=none;html=1;rounded=0;startFill=0;" edge="1" parent="1">
          <mxGeometry width="50" height="50" relative="1" as="geometry">
            <mxPoint x="95" y="660" as="sourcePoint" />
            <mxPoint x="140" y="640" as="targetPoint" />
            <Array as="points">
              <mxPoint x="100" y="640" />
            </Array>
          </mxGeometry>
        </mxCell>
        <mxCell id="GVYkdojZ147YRttXmH7M-6" value="" style="endArrow=none;html=1;rounded=0;startFill=0;" edge="1" parent="1">
          <mxGeometry width="50" height="50" relative="1" as="geometry">
            <mxPoint x="105" y="670" as="sourcePoint" />
            <mxPoint x="140" y="650" as="targetPoint" />
            <Array as="points">
              <mxPoint x="110" y="650" />
            </Array>
          </mxGeometry>
        </mxCell>
        <mxCell id="GVYkdojZ147YRttXmH7M-8" value="" style="endArrow=none;html=1;rounded=1;curved=0;" edge="1" parent="1">
          <mxGeometry width="50" height="50" relative="1" as="geometry">
            <mxPoint x="108" y="660" as="sourcePoint" />
            <mxPoint x="126" y="650" as="targetPoint" />
            <Array as="points">
              <mxPoint x="118" y="660" />
            </Array>
          </mxGeometry>
        </mxCell>
        <mxCell id="5ZSs2sk48D-LBrtZ_hEb-1" value="" style="endArrow=none;html=1;rounded=0;startFill=0;" edge="1" parent="1">
          <mxGeometry width="50" height="50" relative="1" as="geometry">
            <mxPoint x="99" y="644.83" as="sourcePoint" />
            <mxPoint x="129" y="644.83" as="targetPoint" />
            <Array as="points">
              <mxPoint x="99" y="644.83" />
            </Array>
          </mxGeometry>
        </mxCell>
        <mxCell id="5ZSs2sk48D-LBrtZ_hEb-4" value="" style="endArrow=none;html=1;rounded=0;" edge="1" parent="1">
          <mxGeometry width="50" height="50" relative="1" as="geometry">
            <mxPoint x="105" y="670" as="sourcePoint" />
            <mxPoint x="90" y="670" as="targetPoint" />
          </mxGeometry>
        </mxCell>
      </root>
    </mxGraphModel>
  </diagram>
</mxfile>
